<svg id="КЖБУ" xmlns="http://www.w3.org/2000/svg" width="60.386" height="39.2" viewBox="0 0 60.386 39.2">
  <g id="Group_2" data-name="Group 2">
    <path id="Path_3" data-name="Path 3" d="M41.41,2.75H37.19V1.03a1.03,1.03,0,1,0-2.06,0V2.75H23.44V1.03a1.03,1.03,0,0,0-2.06,0V2.75H17.85a4.729,4.729,0,0,0-4.72,4.72V34.48a4.729,4.729,0,0,0,4.72,4.72H41.42a4.729,4.729,0,0,0,4.72-4.72V7.47A4.744,4.744,0,0,0,41.41,2.75Zm2.66,31.73a2.659,2.659,0,0,1-2.66,2.66H17.84a2.659,2.659,0,0,1-2.66-2.66V7.47a2.659,2.659,0,0,1,2.66-2.66h3.53V7.22a1.03,1.03,0,0,0,2.06,0V4.81H35.12V7.22a1.03,1.03,0,1,0,2.06,0V4.81H41.4a2.659,2.659,0,0,1,2.66,2.66V34.48Z" fill="#070809"/>
    <path id="Path_4" data-name="Path 4" d="M36.62,12.06h-14a3.325,3.325,0,0,0-3.32,3.32V31.44a3.325,3.325,0,0,0,3.32,3.32h14a3.325,3.325,0,0,0,3.32-3.32V15.38A3.325,3.325,0,0,0,36.62,12.06Zm1.26,19.38a1.25,1.25,0,0,1-1.25,1.25h-14a1.25,1.25,0,0,1-1.25-1.25V15.38a1.25,1.25,0,0,1,1.25-1.25h14a1.25,1.25,0,0,1,1.25,1.25Z" fill="#070809"/>
    <path id="Path_5" data-name="Path 5" d="M35.95,18.52a1.373,1.373,0,0,0-1.92.29l-6.11,8.24-2.67-3.6a1.373,1.373,0,0,0-2.21,1.63l3.77,5.09a1.378,1.378,0,0,0,1.1.56,1.364,1.364,0,0,0,1.1-.56l7.22-9.73A1.374,1.374,0,0,0,35.95,18.52Z" fill="#070809"/>
  </g>
  <g id="Path_2701_1_">
    <path id="Path_6" data-name="Path 6" d="M52.67,39.2a1.321,1.321,0,0,1-1.32-1.33l.43-32.54A2.046,2.046,0,0,1,53.03,3.4a1.936,1.936,0,0,1,2.23.59c1.33,1.62,3.21,4.9,4.64,11.32,2.14,9.58-3.46,11-3.7,11.05a.991.991,0,1,1-.45-1.93c.15-.04,3.9-1.12,2.21-8.69-1.2-5.38-2.68-8.35-3.83-9.96a.227.227,0,0,0-.41.13l.25,31.96a1.3,1.3,0,0,1-1.3,1.33Z"/>
  </g>
  <g id="Group_3" data-name="Group 3">
    <path id="Path_7" data-name="Path 7" d="M7.5,3.13a.849.849,0,0,0-.85.85V14.03a.948.948,0,0,1-.2.58L4.77,16.7a.774.774,0,0,1-1.2,0L1.9,14.61a.927.927,0,0,1-.2-.58V3.98a.85.85,0,0,0-1.7,0V14.03a2.636,2.636,0,0,0,.57,1.64l2.54,3.18L2.26,37.27A1.877,1.877,0,0,0,4.17,39.2a1.877,1.877,0,0,0,1.91-1.93L5.23,18.85l2.55-3.18a2.615,2.615,0,0,0,.57-1.64V3.98A.856.856,0,0,0,7.5,3.13Z"/>
    <path id="Path_8" data-name="Path 8" d="M4.17,14.59a.849.849,0,0,0,.85-.85V3.87a.85.85,0,0,0-1.7,0v9.87A.849.849,0,0,0,4.17,14.59Z"/>
  </g>
</svg>
