<svg width="241" height="187" viewBox="0 0 241 187" fill="none" xmlns="http://www.w3.org/2000/svg">
<g opacity="0.15">
<path d="M206.003 185.562C203.551 185.562 201.158 184.563 198.882 183.563C196.489 182.563 194.037 181.563 191.586 181.563C189.309 181.563 187.208 182.563 185.165 183.387C182.889 184.386 180.496 185.386 178.044 185.268C174.892 185.151 171.799 183.151 170.34 180.387C168.764 177.388 169.172 173.918 169.464 170.507C169.756 167.39 170.048 164.215 168.88 161.392C168.589 160.686 168.063 159.921 167.713 159.216C166.838 157.745 165.904 156.216 165.904 154.511C165.904 153.805 166.02 153.1 166.079 152.511C166.254 151.218 166.487 149.924 165.787 149.1C164.795 147.983 163.044 148.512 161.234 149.1C157.148 150.394 152.829 150.512 148.101 149.395C147.926 149.395 147.809 149.218 147.809 148.983C147.809 148.748 147.985 148.689 148.218 148.689C150.786 149.1 153.238 148.277 155.864 147.395C158.024 146.689 160.242 145.925 162.518 145.925H162.635C166.371 145.925 169.756 148.042 172.908 150.041L173.783 150.512C179.212 153.923 185.165 156.687 190.885 159.392C191.294 157.393 191.586 155.275 191.994 153.217C192.403 151.041 192.811 148.748 193.162 146.63C190.068 145.337 186.858 144.337 183.648 143.337C177.227 141.455 170.69 139.456 165.962 134.751C162.518 131.281 157.966 128.987 153.121 128.164H153.004C152.187 128.047 151.428 127.87 150.728 127.341C150.319 127.047 150.027 126.341 150.144 125.753C150.144 125.224 150.319 124.753 150.611 124.459C150.903 123.636 150.494 122.636 150.144 122.048C150.027 121.872 149.852 121.577 149.736 121.342C149.327 120.754 148.918 120.048 148.743 119.343C148.627 118.872 148.568 118.461 148.568 117.931C148.452 117.461 148.452 116.931 148.276 116.461C148.101 115.932 147.693 115.461 147.401 115.05C146.992 114.579 146.525 113.932 146.292 113.226C146.292 113.109 146.292 113.05 146.175 113.05L146.584 123.518C147.051 123.401 147.576 123.401 147.985 123.695C148.568 123.989 149.094 124.518 149.152 125.165C149.152 125.282 149.152 125.459 149.035 125.577C148.918 125.694 148.743 125.694 148.627 125.577C148.335 125.4 148.043 125.165 147.751 125.106C147.576 125.106 147.167 125.106 147.051 125.282C146.934 125.459 146.934 125.694 146.934 125.871C146.934 126.988 146.934 128.047 147.518 128.752C148.218 129.576 149.677 130.869 151.37 131.222C151.545 131.222 151.662 131.399 151.662 131.634C151.662 131.81 151.545 131.928 151.37 132.046C149.561 132.457 147.693 132.751 145.825 132.869C144.833 132.987 143.84 132.987 142.848 132.987C141.739 132.987 140.689 132.987 139.58 133.104C137.128 133.281 135.202 133.692 133.626 134.516C133.042 134.81 132.225 135.339 132.225 135.986C132.225 136.574 132.692 137.103 133.217 137.28C133.801 137.456 134.502 137.456 135.202 137.456C136.077 137.338 137.07 137.338 137.945 137.28C140.689 137.103 143.665 136.809 146.467 137.397C146.642 137.397 146.759 137.574 146.759 137.809C146.759 137.985 146.584 138.103 146.35 138.103L132.984 138.279C132.284 138.279 131.583 138.279 130.999 138.573C130.532 138.75 130.007 139.397 130.182 139.985C130.299 140.455 130.883 140.867 131.35 140.985C131.817 141.102 132.459 140.985 132.926 140.867L133.334 140.749C135.727 140.338 138.004 140.632 140.338 140.926C142.323 140.926 144.191 141.102 146.175 141.338C146.35 141.338 146.467 141.514 146.467 141.749C146.467 141.926 146.292 142.043 146.058 142.161C144.191 142.279 142.323 141.984 140.513 141.749C140.397 141.749 140.338 141.749 140.222 141.749C138.12 141.749 136.194 141.749 134.21 141.867C133.626 141.867 132.809 141.867 132.342 142.279C132.05 142.455 131.875 142.69 131.933 142.984C131.933 143.161 132.225 143.396 132.4 143.455C133.276 144.043 134.268 144.631 135.26 144.866C136.369 145.16 137.537 145.043 138.704 144.984C138.996 144.984 139.288 144.866 139.58 144.866C141.973 144.69 144.307 144.984 146.7 145.572C146.876 145.572 146.992 145.748 146.992 145.984C146.992 146.16 146.817 146.278 146.584 146.278L138.179 146.572C137.595 146.572 137.186 146.689 137.07 146.983C136.953 147.16 137.07 147.454 137.245 147.571C137.42 147.748 137.712 147.865 138.12 147.983C140.805 148.865 143.782 149.395 146.35 149.395C146.525 149.395 146.759 149.571 146.759 149.806L146.876 153.217C146.876 153.394 146.759 153.629 146.584 153.629L129.54 155.452C129.423 155.452 129.365 155.452 129.248 155.334C126.855 152.864 125.279 149.63 124.696 146.219C124.579 145.395 124.521 144.631 124.404 143.925C124.229 142.337 123.995 140.808 123.412 139.456C121.602 135.163 116.582 133.281 112.438 133.692C108.703 134.104 104.734 135.986 100.473 139.456C95.3364 143.749 92.0677 148.16 90.6085 152.864C90.4918 153.041 90.4334 153.158 90.2 153.158C89.9665 153.158 89.9081 152.982 89.9081 152.864L87.1648 103.346L81.9117 94.2309C81.7949 94.0545 81.7949 93.8193 82.0284 93.7604C82.2035 93.6428 82.437 93.6428 82.4953 93.7604L90.0832 102.347L143.315 100.818L129.482 93.4664L81.7949 94.0545L83.079 144.278C83.079 144.454 82.9623 144.69 82.7872 144.69C82.6121 144.69 82.3786 144.572 82.3786 144.396L80.6859 132.987C78.7014 133.163 76.7169 133.163 74.7324 133.163C75.8413 136.75 76.0165 140.749 75.316 144.454C78.0593 144.043 80.861 144.631 82.9623 145.16C83.079 145.16 83.1374 145.278 83.1374 145.337L87.3983 153.335C87.515 153.452 87.515 153.629 87.3983 153.746C87.2815 153.864 87.2232 153.923 87.1064 153.923C84.2464 153.629 81.2696 154.04 78.2928 155.099C79.6937 154.981 81.0361 155.099 82.437 155.099C83.4292 155.099 84.4215 155.217 85.4138 155.099C89.3828 154.981 92.2429 154.099 93.9939 152.217C94.5776 151.512 95.1613 150.806 95.6866 150.041C96.387 149.042 97.0874 148.042 98.0797 147.219C99.9475 145.748 102.457 145.395 104.734 145.101C106.543 144.925 108.411 144.69 110.104 143.925C111.213 143.455 112.088 142.631 112.964 141.808C113.431 141.396 114.073 140.926 114.54 140.514C115.707 139.632 117.983 138.338 120.26 139.22C120.376 139.338 120.435 139.397 120.435 139.514C120.551 143.396 117.75 147.101 114.131 148.218L113.839 148.336C112.672 148.63 111.388 149.042 111.154 150.041C111.037 151.041 112.322 151.864 113.139 152.217C117.108 154.099 121.544 155.217 126.68 155.628C126.797 155.628 126.972 155.746 126.972 155.805C127.089 155.922 126.972 156.099 126.972 156.216C126.563 156.687 126.388 157.334 126.155 158.04C125.98 158.745 125.688 159.451 125.279 159.921C124.404 161.098 122.828 161.745 121.018 161.627C119.618 161.509 118.158 161.156 116.991 160.627C115.006 164.215 111.621 167.096 107.71 168.508C105.026 169.39 102.049 169.096 99.3054 168.802C97.9046 168.625 96.5621 168.508 95.278 168.508C90.0248 168.39 85.0635 170.978 80.3357 173.389C78.7598 174.212 77.1838 174.977 75.6079 175.682C61.7746 181.975 45.1396 181.269 31.0729 173.683C30.9561 173.683 30.9561 173.565 30.8978 173.506L19.2241 140.397C16.831 133.633 14.6714 126.4 16.6559 119.343C16.6559 119.166 16.831 119.049 17.0645 119.049C17.2979 119.049 17.3563 119.166 17.473 119.343C17.94 121.048 17.94 122.754 17.94 124.459C17.94 125.282 17.94 126.165 17.94 126.929C18.0567 129.105 19.049 131.928 21.3837 132.634C22.9597 133.045 24.5356 132.34 26.1116 131.634L26.5201 131.458C32.8239 128.752 40.0616 128.047 46.7739 129.34C47.9413 129.517 49.167 129.752 49.8675 129.046C50.3344 128.517 50.4511 127.87 50.4511 127.047C50.8597 123.577 51.2683 119.872 51.6185 116.461C52.0271 112.991 52.494 109.345 52.7859 105.875C52.7859 105.699 52.961 105.581 53.0777 105.581C53.2528 105.581 53.3695 105.699 53.4863 105.875C54.7704 110.756 54.1867 115.755 53.603 120.754C53.3112 123.753 52.9026 126.929 53.0193 129.928C53.1361 132.751 53.603 135.633 54.1283 138.397C54.8288 142.396 55.5876 146.513 55.0039 150.571C60.8407 151.041 66.5608 152.159 72.1058 153.982C72.1058 153.864 72.1058 153.805 71.989 153.805C71.8723 153.688 71.8139 153.629 71.8139 153.511L70.238 127.341C69.8294 120.754 69.4208 113.932 67.3779 107.581C65.2183 100.7 60.8407 93.9957 54.5953 87.5854C48.9336 81.8221 42.4547 76.9997 36.2093 72.2949C31.4814 68.7075 26.5201 65.0025 20.5082 64.2968C20.3331 64.2968 20.2163 64.1203 20.2163 63.8851C20.2163 63.7087 20.3915 63.4734 20.6249 63.4734C29.6136 63.3558 38.7191 67.3549 44.089 73.8827C44.4976 69.0015 48.1164 64.5908 52.9026 63.297C53.603 63.1206 54.3034 63.0029 55.0039 62.8853C55.821 62.7677 56.6965 62.5913 57.4553 62.4148C58.2725 62.1208 60.1403 61.4151 60.6072 59.592C61.0158 58.1805 60.4321 56.7691 59.7901 55.4165C59.615 55.0048 59.4982 54.5931 59.3231 54.2403C58.506 52.1231 58.4476 48.9474 60.4321 47.0655C61.0158 46.595 61.7162 46.1833 62.4166 45.7717C63.2922 45.3012 64.1093 44.8895 64.5763 44.0662C65.2767 43.0664 65.2767 41.655 64.693 40.1847C64.4012 39.3614 63.9926 38.7145 63.5256 37.8912C63.2338 37.4207 62.9419 36.8914 62.6501 36.3033C60.9574 32.8923 60.8407 29.0109 60.9574 25.4235C57.9806 25.4235 55.0039 25.3059 52.1438 24.953C51.9687 24.953 51.852 24.7766 51.852 24.659C51.852 24.4825 51.9687 24.3649 52.1438 24.2473C53.9532 23.7768 55.7043 22.5418 56.8717 21.0716C49.167 26.3645 39.9448 30.2459 29.4385 32.6571C26.4618 33.3628 23.4266 34.1273 20.6249 35.5388C20.6249 35.7152 20.4498 35.8328 20.2163 35.8328C20.0996 35.8328 20.0412 35.8328 19.9245 35.8328C19.7494 35.8328 19.6327 35.7152 19.5159 35.5388C19.5159 35.4212 19.5159 35.4212 19.5159 35.3623C18.1151 34.0685 17.7065 32.069 18.6404 30.3635C19.8078 28.1876 22.2009 27.2466 23.485 26.9526C24.9442 26.5409 26.4618 26.4821 27.921 26.3645C28.3879 26.3645 28.7965 26.2468 29.3218 26.2468C35.3337 25.7764 41.1706 23.8356 46.3653 20.6599C46.8323 20.3659 47.2409 20.0718 47.7662 19.7778C49.4589 18.6604 51.2099 17.4842 53.3112 16.8961C55.7626 16.1904 59.148 16.602 60.724 19.0132C61.833 20.7187 61.833 22.8359 61.833 24.4825C61.833 24.6002 61.833 24.659 61.833 24.7766C63.2922 24.7766 64.8097 24.659 66.3857 24.6002C68.9539 24.4237 71.6388 24.0121 73.6817 22.6006C75.6662 21.3068 77.3589 18.7192 76.9503 16.308L60.3737 15.4846C60.257 15.4846 60.1986 15.4846 60.0819 15.367C55.2373 10.4858 49.2838 4.3696 41.8126 2.60531C37.2599 1.42911 32.1235 2.01721 27.3957 4.19317C23.7184 5.89865 20.7417 8.48628 18.8155 11.4856C16.6559 14.8965 15.3718 19.1897 15.1383 24.2473C14.9632 29.5402 15.4301 34.1273 16.7142 37.8324C17.9984 41.7138 19.3992 45.8305 19.5743 50.006C19.7494 54.005 18.4653 57.8865 15.8971 61.4739C1.77196 81.0575 -2.08035 107.287 5.68264 130.164C7.08348 134.163 8.77616 138.162 10.4105 141.926C12.2783 146.336 14.3795 150.924 15.7804 155.511C19.1657 166.273 18.9322 174.565 15.1967 181.563C15.0799 181.681 15.0216 181.74 14.9048 181.74H6.2319C6.05679 181.74 5.82332 181.563 5.82332 181.328C5.82332 181.152 5.99842 180.917 6.2319 180.917H14.613C18.1735 174.153 18.3486 166.155 15.0799 155.628C13.6207 151.041 11.6362 146.454 9.71005 142.043C8.01737 138.221 6.32469 134.28 4.98222 130.164C-2.83914 107.169 1.01317 80.6459 15.1967 60.827C17.7649 57.3572 18.9322 53.5346 18.7571 49.7707C18.582 45.6541 17.2979 41.655 16.0138 37.7735C14.7297 33.9509 14.2044 29.3638 14.4379 23.8944C14.613 18.7192 15.8971 14.3084 18.1735 10.8387C20.2747 7.66295 23.3099 5.07532 27.1038 3.25221C31.89 1.07625 37.3183 0.370536 42.1628 1.60554C49.8091 3.42864 55.821 9.48605 60.6656 14.4849L77.3589 15.1906C77.534 15.1906 77.6508 15.3082 77.6508 15.4846C78.3512 18.3075 76.3667 21.3656 74.0903 22.8947C71.8139 24.3649 69.0706 24.7766 66.3857 25.0118C64.9265 25.1294 63.2922 25.1883 61.833 25.1883C61.833 28.658 61.9497 32.4807 63.5256 35.774C63.8175 36.2445 63.9926 36.7738 64.3428 37.2443C64.8097 38.0676 65.2183 38.8321 65.5102 39.6555C66.2106 41.3609 66.0938 43.0664 65.3351 44.2426C64.7514 45.1248 63.7591 45.6541 62.8836 46.1245C62.1832 46.5362 61.5995 46.8302 61.0742 47.3007C59.2647 48.8886 59.4982 51.7703 60.1986 53.711C60.3154 54.1227 60.4905 54.5343 60.6656 54.8872C61.2493 56.3574 61.9497 58.0041 61.4827 59.592C61.0742 61.0622 59.6733 62.2972 57.8055 62.8853C56.93 63.1794 55.9961 63.297 55.2373 63.4734C54.5369 63.591 53.8365 63.6498 53.1361 63.8851C48.4082 65.1789 44.8478 69.7661 44.9061 74.7649C44.9061 74.9413 44.7894 75.0589 44.6143 75.1766C44.4392 75.2942 44.3225 75.1766 44.2057 75.0589C39.8281 69.2956 32.6488 65.3553 24.8858 64.3556C29.3218 65.9434 33.2909 68.8251 36.8513 71.5304C43.1551 76.2351 49.6923 80.9987 55.3541 86.9385C61.6578 93.4076 66.0355 100.23 68.3118 107.228C70.4131 113.697 70.7633 120.637 71.1719 127.223L72.7478 153.217C73.0397 153.511 73.1564 154.04 72.9229 154.629C72.8062 154.805 72.6311 154.923 72.456 154.805C66.7359 152.923 60.7823 151.688 54.7704 151.335C54.6537 151.335 54.5953 151.218 54.4785 151.218C54.3618 151.1 54.3618 151.041 54.3618 150.924C54.9455 146.807 54.2451 142.631 53.4863 138.515C53.0193 135.692 52.494 132.81 52.3773 129.928C52.2606 126.812 52.6691 123.636 52.961 120.637C53.4279 116.637 53.8365 112.462 53.2528 108.463C52.961 111.286 52.5524 113.932 52.2606 116.637C51.852 120.107 51.385 123.753 51.0932 127.223C50.9764 128.105 50.9181 129.046 50.2177 129.634C49.2254 130.634 47.5327 130.34 46.4821 130.164C39.8281 128.87 32.8239 129.576 26.6952 132.163L26.2867 132.34C24.7107 133.045 22.8429 133.81 21.0335 133.339C18.3486 132.634 17.1812 129.458 17.0645 127.047C16.9477 126.165 17.0645 125.341 17.0645 124.459C17.0645 123.342 17.0645 122.283 16.9477 121.283C15.6636 127.694 17.7649 134.163 19.9245 140.279L31.7149 173.212C45.4898 180.622 61.8913 181.328 75.4328 175.094C77.0087 174.389 78.5847 173.624 80.1022 172.801C84.9468 170.331 89.9081 167.684 95.3364 167.802C96.7372 167.802 98.0797 167.978 99.4805 168.096C102.341 168.39 105.026 168.802 107.594 167.92C111.446 166.626 114.715 163.744 116.582 160.157C116.699 159.98 116.874 159.98 117.049 159.98C118.217 160.568 119.734 160.862 121.194 161.098C122.361 161.215 123.878 160.921 124.754 159.686C125.163 159.157 125.338 158.569 125.571 157.981C125.746 157.51 125.863 156.981 126.155 156.51C121.194 156.099 116.758 154.923 112.905 153.1C111.213 152.276 110.454 151.218 110.512 150.1C110.687 148.63 112.38 148.101 113.664 147.807L113.956 147.689C117.224 146.689 119.676 143.514 119.793 139.985C117.925 139.514 116.057 140.573 115.065 141.279C114.598 141.69 113.956 142.102 113.489 142.573C112.497 143.396 111.621 144.16 110.395 144.749C108.703 145.631 106.718 145.866 104.85 146.042C102.457 146.336 100.298 146.513 98.605 147.924C97.7295 148.63 97.1458 149.63 96.4454 150.629C95.9784 151.453 95.3364 152.217 94.6359 152.923C92.6514 154.923 89.6163 155.922 85.4138 156.04C84.4215 156.04 83.3125 156.04 82.3202 156.04C80.1606 155.922 77.9426 155.922 75.783 156.334C75.6079 156.334 75.3744 156.216 75.3744 156.158C75.2577 155.981 75.3744 155.746 75.5495 155.687C79.11 153.864 82.7872 153.1 86.3476 153.276L82.4953 146.101C80.3357 145.513 77.534 144.984 74.7907 145.513C74.674 145.513 74.4989 145.513 74.4989 145.395C74.3821 145.278 74.3821 145.219 74.3821 145.101C75.2577 141.22 75.0826 136.986 73.7985 133.104C73.7985 132.987 73.7985 132.928 73.9152 132.81C74.0319 132.693 74.0903 132.634 74.207 132.634C76.4834 132.751 78.7598 132.634 80.9194 132.457C81.0945 132.457 81.328 132.575 81.328 132.751L81.7366 135.457L80.861 93.4076C80.861 93.2312 80.9778 92.9959 81.1529 92.9959L129.365 92.2902C129.482 92.2902 129.54 92.2902 129.54 92.2902L144.774 100.406C144.891 100.524 144.949 100.582 144.949 100.818C144.949 100.994 144.774 101.112 144.658 101.112L89.9665 102.876C89.8497 102.876 89.7914 102.876 89.6746 102.758L84.3048 96.5245L87.6901 102.405C87.6901 102.405 87.6901 102.523 87.8069 102.582L90.3751 150.512C92.0677 146.336 95.2196 142.337 99.8891 138.456C104.267 134.751 108.294 132.869 112.263 132.457C116.641 132.046 122.069 134.045 123.937 138.75C124.521 140.22 124.754 141.926 124.929 143.455C125.046 144.278 125.104 144.925 125.221 145.748C125.805 148.924 127.322 151.923 129.482 154.335L145.883 152.629L145.767 149.924C143.198 149.924 140.338 149.453 137.653 148.512C137.245 148.395 136.836 148.218 136.544 147.924C136.136 147.63 135.961 147.042 136.136 146.513C136.428 145.807 137.245 145.689 137.829 145.631L142.79 145.454C141.622 145.337 140.513 145.337 139.346 145.337C139.054 145.337 138.762 145.337 138.471 145.454C137.303 145.572 136.019 145.631 134.793 145.337C133.626 145.043 132.517 144.454 131.641 143.866C131.35 143.69 130.941 143.396 130.824 142.867C130.708 142.396 130.941 141.984 131.233 141.69C131.116 141.69 131.058 141.69 130.941 141.69C130.124 141.573 129.248 141.102 129.073 140.103C128.898 139.22 129.54 138.279 130.241 137.927C130.708 137.75 131.233 137.633 131.7 137.515C131.233 137.103 130.883 136.633 130.883 135.927C130.883 135.104 131.583 134.457 132.692 133.81C134.385 132.987 136.369 132.516 138.938 132.34C140.046 132.222 141.214 132.222 142.323 132.222C143.315 132.222 144.307 132.222 145.3 132.104C146.7 131.987 148.043 131.81 149.444 131.634C148.16 131.046 147.051 130.046 146.467 129.34C145.65 128.458 145.591 127.223 145.65 125.929C145.65 125.635 145.65 125.224 145.942 124.812C146.234 124.518 146.642 124.283 147.109 124.283C146.7 124.165 146.292 124.165 145.942 124.4C145.825 124.518 145.767 124.518 145.533 124.4C145.416 124.283 145.358 124.224 145.358 124.106L144.774 101.465C144.774 101.347 144.774 101.288 144.891 101.17C145.008 101.053 145.066 101.053 145.183 101.053C145.475 101.053 145.65 101.17 145.883 101.347C145.942 102.464 145.767 109.521 145.767 110.404C145.767 110.698 145.767 110.992 145.767 111.227C145.767 111.933 146.234 112.521 146.467 113.109C146.642 113.697 147.051 114.109 147.459 114.579C147.868 115.05 148.276 115.579 148.568 116.167C148.743 116.755 148.86 117.284 148.86 117.872C148.86 118.284 148.977 118.696 149.035 119.049C149.21 119.637 149.502 120.225 149.911 120.872C150.086 121.048 150.203 121.342 150.378 121.577C151.078 122.754 151.253 123.871 150.845 124.753C150.845 124.871 150.728 124.871 150.728 124.93C150.553 125.047 150.436 125.341 150.436 125.753C150.436 126.165 150.553 126.576 150.845 126.753C151.312 127.164 152.012 127.223 152.712 127.341H152.829C157.79 128.164 162.518 130.517 166.079 134.104C170.748 138.691 177.169 140.573 183.473 142.514C186.741 143.514 190.185 144.513 193.337 145.925C193.512 146.042 193.512 146.101 193.512 146.336C193.103 148.512 192.695 150.924 192.344 153.217C191.936 155.511 191.527 157.687 191.177 159.921C191.177 160.039 191.06 160.098 191.002 160.215C190.885 160.333 190.827 160.333 190.71 160.215C184.873 157.393 178.745 154.629 173.083 151.1L172.207 150.512C169.056 148.512 165.904 146.513 162.226 146.513C160.067 146.513 157.849 147.219 155.689 147.924C154.288 148.395 152.946 148.806 151.545 149.1C154.697 149.395 157.674 149.1 160.534 148.218C162.11 147.689 164.503 146.924 165.904 148.512C166.896 149.63 166.721 151.1 166.371 152.629C166.254 153.217 166.196 153.923 166.196 154.511C166.196 155.981 167.013 157.393 167.888 158.804C168.297 159.51 168.764 160.274 169.056 161.098C170.34 164.097 170.048 167.39 169.756 170.566C169.464 173.977 169.172 177.27 170.573 180.034C171.857 182.622 174.717 184.445 177.577 184.504C179.97 184.622 182.13 183.622 184.406 182.681C186.566 181.799 188.784 180.799 191.119 180.799C193.804 180.799 196.372 181.799 198.765 182.798C201.742 184.092 204.602 185.268 207.579 184.504C208.454 184.327 209.271 183.916 210.03 183.504C210.614 183.21 211.314 182.916 212.015 182.622C214.174 181.799 216.567 181.799 218.727 182.622C217.443 180.622 217.034 177.917 216.918 175.918C216.801 173.33 217.385 170.742 218.027 168.214C216.042 167.92 214.058 167.626 212.073 167.331C209.972 167.037 207.929 166.626 205.769 166.449C199.932 165.744 194.913 164.861 191.236 161.333C191.119 161.215 191.06 161.039 191.119 160.862C193.804 156.863 194.796 151.57 193.804 146.807C193.804 146.689 193.804 146.513 193.92 146.395C194.037 146.278 194.212 146.278 194.329 146.395C196.781 147.807 199.991 148.512 203.434 148.395C200.983 139.809 201.975 129.693 206.003 121.048C204.894 121.872 203.901 123.342 203.143 125.459C201.041 130.752 200.049 136.633 200.166 142.337V142.455C200.166 143.161 200.166 143.866 199.991 144.454C199.816 145.16 199.174 145.925 198.298 146.042C197.189 146.219 196.314 145.454 195.613 144.749L195.496 144.631C193.92 143.161 191.819 142.161 189.66 141.808C188.784 141.69 187.85 141.69 187.091 141.632C185.515 141.632 183.823 141.514 182.247 140.926C181.255 140.514 180.379 139.809 179.562 139.22C179.153 138.926 178.745 138.632 178.394 138.338C176.118 136.868 173.433 136.045 170.69 136.221C170.573 136.221 170.515 136.221 170.398 136.103C170.281 135.986 170.281 135.927 170.281 135.809C170.982 132.516 170.165 128.929 169.406 125.518C168.705 122.636 168.122 119.754 168.238 116.755C168.53 112.168 170.923 107.875 173.2 104.287C173.608 103.699 174.017 103.111 174.367 102.464C176.352 99.3474 178.394 96.2893 179.62 92.7607C179.737 92.349 179.912 91.9373 180.029 91.4669C180.437 89.9966 180.904 88.3499 181.897 87.1738C183.064 85.7035 185.048 84.5861 187.325 84.2921C189.309 83.998 191.177 84.1745 193.162 84.4097C193.745 82.1161 194.271 77.9994 192.344 73.8239C190.944 73.8239 189.484 73.9416 187.967 73.9416C186.391 74.0592 184.815 74.0592 183.297 74.0592C182.83 74.0592 182.13 74.0592 181.488 73.7651C180.496 73.2946 180.204 71.942 180.029 71.0599C179.912 70.2365 179.854 69.3544 179.737 68.4722C179.562 66.2963 179.328 64.1791 178.278 62.4737C178.103 62.1796 177.869 61.8855 177.694 61.6503C177.11 60.827 176.41 59.9448 176.41 58.8274C176.41 57.8277 176.819 57.0043 177.285 56.1222C177.577 55.6517 177.869 55.1224 177.986 54.6519C178.394 53.2405 177.869 51.8291 177.402 50.2412C177.227 49.7707 177.11 49.2415 176.935 48.771C175.534 43.9486 177.752 38.3028 181.955 35.5976C184.115 34.1861 187.091 35.3035 189.251 36.0093C191.702 36.8326 193.687 38.4205 194.796 40.4788C194.971 40.8905 195.205 41.3609 195.496 41.7726C195.963 42.89 196.605 43.9486 197.481 44.5955C198.065 45.0071 198.765 45.066 199.465 45.3012C200.574 45.4776 201.625 45.7129 202.325 46.595C202.792 47.0655 203.026 47.7712 203.201 48.4769C203.318 48.6534 203.318 48.8886 203.376 49.065C203.493 49.4767 203.96 50.4765 204.777 50.5353C205.361 50.6529 205.944 50.1236 206.586 49.6531C207.228 49.1826 207.754 48.6534 208.571 48.5357C209.855 48.3593 210.964 49.3591 211.256 50.5353C211.548 51.4174 211.431 52.5348 210.964 53.8286C210.147 56.0046 208.863 57.9453 207.228 59.4155C207.812 59.5332 208.337 59.592 208.688 59.8272C209.68 60.2389 210.497 61.0034 211.139 61.7091C211.314 61.8856 211.606 62.1796 211.956 62.4148C212.365 60.5917 213.065 58.9451 213.824 57.122C213.999 56.7103 214.233 56.2986 214.408 55.9458C215.108 54.652 215.809 53.2405 216.1 51.7703C216.509 49.6531 215.984 47.1831 214.641 44.8895C213.474 42.7724 211.664 41.0081 209.972 39.185C208.162 37.3031 206.295 35.3623 204.135 33.8921C198.882 30.4223 191.469 29.893 185.807 32.8923C185.34 33.1864 184.815 33.3628 184.348 33.7157C182.655 34.5978 181.196 35.5388 179.212 35.8328C179.095 35.8328 179.037 35.8328 178.92 35.7152C177.461 34.1273 177.519 31.5985 178.511 30.0107C179.503 28.1287 181.255 26.8937 182.772 26.1292C192.169 20.7187 204.952 21.3068 213.766 27.7171C213.941 27.8347 214.174 28.0111 214.349 28.1876C214.466 28.1876 214.641 28.0699 214.758 28.0699C215.867 27.8935 216.918 28.1876 217.91 28.4816C221.062 29.3638 224.739 30.3635 227.424 32.7747C229.525 34.6566 230.693 37.2443 231.86 39.5378C233.844 43.5369 236.004 48.0065 235.887 52.9465C235.887 54.3579 235.595 55.7693 235.42 57.122C235.012 59.592 234.603 62.0032 235.304 64.2968C235.712 65.7082 236.588 67.002 237.405 68.1782L237.522 68.3546C238.397 69.7661 239.331 71.1775 239.681 72.7654C240.09 74.6473 239.681 76.4704 238.572 77.5878C237.872 78.2935 236.88 78.7051 235.887 78.7051C235.304 78.7051 234.778 78.5287 234.311 78.2347C234.195 78.5287 234.019 78.9404 233.728 79.2344C233.144 79.9401 232.152 80.3518 231.276 80.3518C230.167 80.3518 229.117 79.9401 228.124 79.4697C227.832 79.3521 227.541 79.2932 227.249 79.058C226.14 78.6463 224.681 78.3523 223.572 79.058C223.455 79.1756 223.28 79.1756 223.105 79.058C222.988 78.9404 222.988 78.7639 222.988 78.5875C223.805 77.2937 222.871 75.5882 222.579 75.1178C222.404 74.8237 222.171 74.412 221.879 74.118C221.295 73.2946 220.712 72.4125 220.478 71.4127C220.011 69.5308 220.653 67.7077 221.47 65.9434C221.587 65.6494 221.762 65.3553 221.879 65.0613C223.28 61.3563 223.572 57.3572 223.863 53.4758C224.155 49.5943 224.447 45.4776 223.396 41.7138C222.521 38.4205 220.303 35.8328 217.56 34.539C219.369 36.4209 220.828 38.8321 221.996 41.655C221.996 41.7726 221.996 41.8314 221.996 41.8314C221.295 44.125 221.529 46.6538 221.587 49.0062C221.587 49.4179 221.587 49.8884 221.704 50.3C221.82 53.1229 221.704 56.2986 220.011 58.8863C219.427 59.7684 218.61 60.5917 217.91 61.2975C216.801 62.4148 215.809 63.4146 215.342 64.7672C215.167 65.1789 214.758 66.5903 213.649 66.2375C213.182 66.1199 212.832 65.5318 212.773 65.1201C212.657 64.826 212.482 64.4144 212.306 64.1203C212.131 65.2377 212.015 66.4139 212.015 67.5313C212.015 71.1187 213.124 74.5297 215.108 77.2349C215.225 77.3525 215.225 77.5289 215.108 77.7054C210.847 82.4102 205.302 86.1152 199.991 89.585L198.59 90.4671C197.014 91.5845 195.321 92.6431 193.745 94.0545C195.555 94.8778 198.181 95.6424 200.75 95.2307C203.143 94.7602 205.186 93.1135 207.053 91.5257C209.505 89.2321 211.898 86.7033 213.999 84.1156C215.4 82.2925 216.976 79.9402 216.392 77.6466C216.392 77.4701 216.509 77.2349 216.684 77.1761C216.859 77.0585 217.093 77.2937 217.151 77.4701C217.968 80.0578 220.128 81.9397 221.879 83.2923C222.579 83.7628 223.28 84.2921 224.038 84.7626C225.498 85.7623 227.015 86.7621 228.299 88.0559C231.043 90.7611 233.027 94.6426 234.019 99.759C235.304 105.758 235.187 112.462 233.844 119.931C232.56 126.635 230.459 133.104 228.416 139.397C227.249 142.867 226.548 146.689 225.848 150.277C225.147 153.746 224.447 157.451 223.396 160.862C222.696 163.038 221.821 165.45 219.953 166.743C221.062 168.214 221.354 170.213 221.412 171.742C221.412 172.213 221.412 172.742 221.529 173.212C221.529 174.506 221.645 175.682 221.937 176.917C222.346 178.329 223.338 180.034 224.914 180.387L238.953 180.799C239.128 180.799 239.362 180.975 239.362 181.211C239.362 181.387 239.187 181.622 238.953 181.622L224.797 181.152C222.696 180.681 221.645 178.741 221.12 177.035C220.828 175.741 220.712 174.447 220.712 173.212C220.712 172.742 220.712 172.213 220.595 171.742C220.478 170.272 220.186 168.272 219.136 166.92C219.019 166.802 219.019 166.743 219.019 166.626C219.019 166.508 219.136 166.449 219.194 166.332C221.178 165.214 222.054 162.744 222.754 160.627C223.863 157.216 224.564 153.629 225.206 150.041C225.906 146.336 226.607 142.573 227.774 139.044C229.875 132.751 231.918 126.282 233.202 119.696C234.603 112.227 234.662 105.699 233.377 99.8178C232.385 94.9366 230.517 91.114 227.832 88.5264C226.548 87.3502 225.089 86.3504 223.688 85.3506C222.988 84.8802 222.229 84.3509 221.529 83.8804C220.069 82.763 218.377 81.4104 217.268 79.4697C216.976 81.3516 215.809 83.1747 214.7 84.5861C212.598 87.2914 210.264 89.7614 207.695 92.055C205.828 93.7605 203.668 95.4659 201.041 95.9364C198.298 96.4657 195.38 95.4659 193.512 94.6426C193.395 94.6426 193.395 94.525 193.337 94.525C190.36 96.995 187.617 100.112 185.807 103.817C185.632 104.229 185.399 104.699 185.224 105.111C185.107 105.287 184.932 105.405 184.757 105.287C184.582 105.17 184.465 104.993 184.582 104.817C184.757 104.346 184.99 103.935 185.165 103.523C186.624 99.6414 187.266 95.3483 186.624 91.114C186.624 90.9964 186.624 90.9376 186.741 90.82C186.858 90.7023 186.916 90.7023 187.033 90.7023C188.492 91.114 189.893 91.8197 191.177 92.5843C191.761 92.9959 192.461 93.29 193.162 93.7016C194.971 92.2314 196.722 90.9964 198.415 89.8202L199.816 88.938C205.069 85.4683 210.38 81.8221 214.583 77.3525C212.715 74.5297 211.606 71.1775 211.606 67.4725C211.606 66.0611 211.723 64.6496 212.015 63.297C211.606 62.8853 211.314 62.4737 210.906 62.1796C210.205 61.4739 209.505 60.7682 208.629 60.3565C208.162 60.1801 207.053 59.7684 206.236 60.1801C206.119 60.2977 206.061 60.2977 205.944 60.3565C205.769 60.4741 205.536 60.4741 205.477 60.2389C205.361 60.0624 205.361 59.8272 205.594 59.7684C205.711 59.6508 205.769 59.592 205.886 59.592C207.987 58.1217 209.622 55.887 210.439 53.4758C210.847 52.2996 210.906 51.3586 210.731 50.6529C210.555 49.8296 209.738 49.065 208.863 49.2415C208.279 49.3591 207.754 49.7119 207.287 50.2412C206.586 50.8293 205.886 51.4174 204.894 51.3586C204.077 51.241 203.318 50.5353 202.909 49.3591C202.792 49.1826 202.792 48.9474 202.734 48.771C202.559 48.1829 202.326 47.5948 202.034 47.1831C201.45 46.4774 200.574 46.301 199.582 46.0657C198.765 45.8893 198.006 45.7717 197.306 45.36C196.138 44.6543 195.496 43.4781 195.029 42.2431C194.854 41.8314 194.621 41.4198 194.446 41.0669C193.337 39.185 191.586 37.7735 189.309 36.9502C187.325 36.2445 184.582 35.2447 182.655 36.4797C178.686 38.9497 176.702 44.2426 177.986 48.771C178.103 49.2415 178.278 49.7707 178.453 50.1824C178.92 51.7703 179.562 53.3581 179.037 55.0048C178.861 55.5929 178.57 56.1222 178.219 56.5927C177.811 57.416 177.402 58.0629 177.402 58.8863C177.402 59.7684 177.986 60.4741 178.57 61.1798C178.745 61.4739 178.978 61.7679 179.153 62.062C180.321 63.9439 180.554 66.2375 180.729 68.4722C180.846 69.2956 180.846 70.1777 181.021 70.9423C181.196 72.0596 181.488 72.7654 182.13 73.0594C182.539 73.2358 183.006 73.2358 183.531 73.2358C184.99 73.2358 186.624 73.1182 188.2 73.1182C189.776 73.0006 191.352 73.0006 192.87 73.0006C193.045 73.0006 193.162 73.1182 193.162 73.177C194.738 76.6468 195.029 80.7635 194.037 84.7626C194.037 84.939 193.862 85.0566 193.629 85.0566C191.644 84.8802 189.66 84.6449 187.675 84.939C185.515 85.233 183.706 86.2328 182.714 87.5266C181.838 88.7028 181.43 90.1142 180.904 91.6433C180.788 92.055 180.612 92.5254 180.496 92.9371C179.328 96.5245 177.227 99.7002 175.126 102.817C174.717 103.405 174.309 103.993 173.958 104.64C171.565 108.345 169.406 112.344 169.114 116.696C168.939 119.519 169.581 122.401 170.281 125.165C171.098 128.576 171.857 131.928 171.274 135.339C173.958 135.221 176.702 136.045 178.978 137.633C179.387 137.927 179.795 138.221 180.262 138.515C181.079 139.103 181.838 139.691 182.714 140.103C184.115 140.691 185.574 140.691 187.266 140.808C188.142 140.808 189.076 140.808 189.951 140.985C192.228 141.279 194.504 142.396 196.197 143.984L196.314 144.102C197.014 144.69 197.598 145.278 198.415 145.219C198.998 145.101 199.407 144.513 199.524 144.102C199.699 143.514 199.699 142.925 199.641 142.279V142.161C199.524 136.398 200.516 130.458 202.617 124.988C203.785 121.989 205.186 120.166 206.995 119.578C207.112 119.46 207.287 119.578 207.404 119.696C207.52 119.813 207.52 119.99 207.52 120.107C203.084 128.988 201.975 139.573 204.66 148.454C204.66 148.571 204.66 148.63 204.66 148.748C204.543 148.865 204.485 148.924 204.368 148.924C200.925 149.1 197.656 148.512 195.088 147.219C195.905 151.923 194.796 156.922 192.344 160.804C195.905 163.979 200.75 164.803 206.295 165.508C208.454 165.802 210.555 166.096 212.598 166.391C214.7 166.685 216.742 167.096 218.902 167.273C219.019 167.273 219.077 167.39 219.194 167.449C219.311 167.567 219.311 167.626 219.311 167.743C218.727 170.331 218.027 172.918 218.143 175.624C218.26 177.917 218.61 181.093 220.712 183.034C220.828 183.151 220.887 183.328 220.712 183.504C220.595 183.681 220.42 183.681 220.245 183.622C217.968 182.446 215.108 182.21 212.715 183.151C212.131 183.328 211.431 183.622 210.847 183.975C210.03 184.386 209.155 184.798 208.162 185.092C207.52 185.445 206.82 185.562 206.003 185.562ZM145.767 108.639L145.883 110.933C145.883 110.756 145.883 110.521 145.883 110.345C145.883 109.874 145.883 109.169 145.767 108.639ZM187.617 91.7021C187.909 94.5838 187.733 97.7007 187.033 100.465C188.609 98.0536 190.593 95.9952 192.695 94.1721C192.111 93.8781 191.527 93.584 191.002 93.29C189.893 92.7019 188.784 92.055 187.617 91.7021ZM225.673 77.8818C226.373 77.8818 227.132 78.0582 228.066 78.3523C228.358 78.4699 228.65 78.5287 228.941 78.764C229.934 79.1756 230.809 79.5873 231.802 79.5873C232.502 79.5873 233.261 79.2932 233.786 78.764C233.961 78.5875 234.253 78.1759 234.195 77.5878C234.195 77.4113 234.311 77.2937 234.37 77.1761C234.486 77.0585 234.662 77.1761 234.778 77.2937C235.187 77.7054 235.654 77.9994 236.354 77.9994C237.171 77.9994 237.93 77.7054 238.455 77.1761C239.564 76.0587 239.623 74.2944 239.331 73.0594C238.922 71.5892 238.164 70.2365 237.23 68.9427L237.113 68.7663C236.237 67.4725 235.42 66.1787 234.953 64.6496C234.136 62.1796 234.545 59.5332 235.07 57.0632C235.245 55.6517 235.537 54.2403 235.537 52.9465C235.654 48.2417 233.436 43.831 231.568 39.9495C230.459 37.7735 229.175 35.1271 227.307 33.3628C224.856 31.0692 221.295 30.0695 218.202 29.1873C217.326 29.0109 216.392 28.7168 215.458 28.7757C215.75 29.0697 215.925 29.3638 216.042 29.7754C216.217 30.3635 216.217 30.9516 215.925 31.5985C215.75 32.0102 215.342 32.4219 214.933 32.4807C214.466 32.6571 213.824 32.4807 213.357 32.069C212.89 31.5985 212.54 30.8928 212.657 30.1871C212.773 29.3637 213.357 28.7757 213.941 28.4816C213.824 28.364 213.766 28.364 213.649 28.3052C205.127 22.189 192.753 21.4832 183.531 26.7761C182.13 27.5995 180.437 28.658 179.562 30.3635C178.745 31.775 178.686 33.7745 179.737 35.0683C181.43 34.7743 182.889 33.9509 184.406 33.0688C184.873 32.7747 185.399 32.5983 185.866 32.2454C191.819 29.1285 199.349 29.5402 204.835 33.3628C207.112 34.8331 208.979 36.8326 210.789 38.7733C212.482 40.5964 214.233 42.3607 215.517 44.5367C216.976 47.0067 217.501 49.6531 217.093 51.9467C216.801 53.5346 216.1 54.946 215.283 56.3574C215.108 56.7691 214.875 57.1808 214.7 57.5336C213.824 59.3567 213.124 61.2386 212.715 63.1206C213.124 63.591 213.532 64.1203 213.707 64.7084C213.824 65.0025 213.999 65.2965 214.174 65.4141C214.466 65.5318 214.758 64.9437 214.991 64.4144C215.575 62.9441 216.684 61.8267 217.735 60.7094C218.435 60.0036 219.194 59.2391 219.719 58.4158C221.295 56.0046 221.412 53.0053 221.295 50.3C221.295 49.8884 221.295 49.4179 221.178 49.0062C221.062 46.595 220.887 44.125 221.587 41.7138C220.186 38.4205 218.318 35.7152 216.159 33.7157C216.042 33.5981 215.984 33.4216 216.042 33.2452C216.159 33.0688 216.334 33.0688 216.451 33.0688C220.186 34.0685 223.28 37.2443 224.447 41.4786C225.556 45.4776 225.264 49.5943 224.914 53.4758C224.622 57.4748 224.33 61.4739 222.813 65.2377C222.696 65.5318 222.638 65.8258 222.404 66.1199C221.704 67.8253 221.003 69.5308 221.529 71.1187C221.704 72.0008 222.346 72.7066 222.813 73.5299C222.988 73.8239 223.28 74.2356 223.513 74.5297C224.214 75.7058 224.505 76.9408 224.33 77.9406C225.031 77.9994 225.323 77.8818 225.673 77.8818ZM55.7627 17.0725C55.0622 17.0725 54.3034 17.1901 53.6614 17.3666C51.7936 17.837 49.9842 19.072 48.2915 20.1894C47.8246 20.4835 47.416 20.7775 46.8907 21.0716C41.6375 24.3649 35.6256 26.3645 29.4969 26.7761C29.03 26.7761 28.6214 26.8937 28.0961 26.8937C26.6369 27.0114 25.1193 27.0702 23.7184 27.3642C22.5511 27.6583 20.3331 28.4816 19.3408 30.4811C18.5237 31.8926 18.9322 33.6569 20.158 34.6566C23.018 33.1864 26.1699 32.363 29.2634 31.6573C40.3534 29.0697 50.0426 24.8942 57.9807 19.072C58.0974 18.9544 58.2725 18.9544 58.4476 19.072C58.5643 19.1897 58.6227 19.3661 58.5643 19.5425C57.6888 21.4244 55.8794 23.1299 53.8365 24.1297C56.2296 24.3061 58.6811 24.4237 61.0742 24.4237C61.0742 24.3061 61.0742 24.2473 61.0742 24.1297C61.0742 22.1301 61.0742 20.4247 60.1986 19.1308C59.3231 17.6606 57.5137 17.0725 55.7627 17.0725ZM214.641 29.0697C214.058 29.3638 213.532 29.7754 213.474 30.3635C213.357 30.7752 213.591 31.2457 213.941 31.5397C214.058 31.6573 214.408 31.9514 214.816 31.7161C215.108 31.5985 215.283 31.4221 215.283 31.2457C215.458 30.834 215.458 30.4223 215.4 30.0695C215.225 29.6578 214.933 29.3638 214.641 29.0697Z" fill="black" stroke="black" stroke-width="0.988506"/>
<path d="M99.2726 102.054C99.1559 100.995 96.8211 75.4129 105.518 74.1779C107.211 73.9427 108.962 74.6484 110.771 76.2362C117.542 82.176 123.029 98.5251 123.029 101.348H122.153C122.153 98.7016 116.666 82.5289 110.187 76.8831C108.553 75.4717 107.036 74.8248 105.635 75.06C101.607 75.6481 100.323 82.8229 99.973 88.7627C99.5645 95.3494 100.148 101.877 100.207 101.936L99.2726 102.054Z" fill="black" stroke="black" stroke-width="0.988506"/>
<path d="M92.7985 93.7029H92.2148C92.2148 90.1743 93.4406 74.7662 98.9856 69.4145C100.386 68.0619 102.021 67.415 103.772 67.4738C106.398 67.5914 112.527 70.2966 112.469 92.5855V92.8208H111.885V92.5855C111.885 86.9398 111.36 68.4147 103.772 68.0619C102.196 68.0031 100.678 68.5912 99.3942 69.8262C93.9659 75.0602 92.7985 90.2331 92.7985 93.7029Z" fill="black" stroke="black" stroke-width="0.988506"/>
</g>
</svg>
