<svg width="185" height="170" viewBox="0 0 185 170" fill="none" xmlns="http://www.w3.org/2000/svg">
<path opacity="0.15" d="M124.374 168.97H123.248L123.455 168.061C121.788 165.79 116.991 158.886 116.33 152.83C115.956 149.408 113.084 148.045 109.464 146.319C106.016 144.684 101.736 142.655 98.6041 138.113C92.4849 129.241 83.4065 122.276 80.4762 121.428C79.0972 121.035 77.4596 121.792 75.8508 122.549C74.3569 123.245 72.9492 123.942 71.7138 123.639C71.3691 123.548 71.0531 123.487 70.737 123.427C68.8409 123.003 67.2034 122.639 65.1636 121.247C64.6752 120.913 64.7614 120.278 64.9912 119.611C63.5835 120.399 62.2045 120.974 60.9979 121.186C55.7692 122.094 46.8633 121.731 40.7153 119.218C35.5728 117.128 30.2579 116.644 25.7762 117.855C24.3972 118.218 22.1851 118.309 19.9155 118.158C19.9155 118.673 19.6856 119.187 19.226 119.672C18.0768 120.853 15.4912 121.549 13.3078 120.611C10.3774 119.339 7.1598 115.554 5.00513 112.586C4.25818 111.557 3.71232 110.557 3.31011 109.619C2.36206 109.043 1.67257 108.347 1.41401 107.65C0.264846 104.683 1.75876 100.655 2.85046 97.7181C2.93664 97.4455 3.05156 97.2033 3.13774 96.9611C4.34436 93.5998 7.01616 90.9654 10.1189 90.0569C13.2503 89.1182 18.6227 81.9113 21.1221 77.2783C23.6215 72.7058 32.0391 64.5299 33.2745 63.3489C33.3032 62.5616 33.4468 59.5032 33.9352 56.8385C34.3949 54.3554 36.8943 53.2956 38.7042 52.5083C39.5086 52.1449 40.2843 51.8421 40.6003 51.4787C41.7208 50.2978 49.0467 41.0923 50.5118 38.5789C51.661 36.5804 51.2875 33.4614 51.1439 32.6136C48.0986 30.827 43.2147 24.044 39.7672 19.0476C38.0434 16.5342 37.2678 12.1435 37.4402 6.02668C37.4402 5.84499 37.4402 5.72386 37.4402 5.6633C37.4402 5.29993 37.5838 4.17952 37.7849 3.24081C38.1584 1.36337 38.4169 1 38.8191 1C39.3937 1 39.5086 1.66619 39.5948 3.14996C39.7959 6.90483 42.1517 9.99351 44.6224 13.2639C44.7948 13.5061 44.9671 13.7181 45.1682 13.9603C45.1682 13.9301 45.1682 13.8695 45.1682 13.8392C45.1108 13.1125 45.2544 10.7203 45.5417 8.44917C46.0588 4.20981 46.6047 3.78587 47.0644 3.72531C47.7826 3.63446 48.1848 4.57318 48.6445 7.32877C49.7649 14.0512 56.8035 19.5624 61.0266 22.863C61.2277 23.0144 61.4001 23.1658 61.6012 23.3172C61.8023 23.1053 61.9747 22.9236 62.2045 22.7419C63.0664 22.0151 64.0432 21.7426 65.1062 21.9243C68.9271 22.5905 70.7945 27.708 72.432 32.2502C73.3226 34.703 74.1845 37.0346 75.1613 38.0642C76.5977 39.5782 80.6773 40.7592 84.9866 41.9704C89.0087 43.1211 93.1744 44.3021 96.3058 45.9978C98.4892 47.1788 100.5 48.6929 102.454 50.1463C106.476 53.1442 110.268 55.9906 115.267 56.1723C119.519 56.3237 124.431 58.7462 128.741 60.8659C132.073 62.5011 135.205 64.0454 136.986 63.9243C140.319 63.7123 150.431 63.0461 156.78 64.4996C162.698 65.8623 170.254 66.1348 170.34 66.1348H184V67.0433H170.254C170.168 67.0433 162.526 66.7404 156.522 65.3778C150.316 63.9546 140.29 64.6208 136.986 64.8327C134.975 64.9538 131.901 63.4398 128.339 61.6835C124.087 59.5941 119.289 57.2322 115.209 57.0807C109.981 56.8991 105.901 53.8407 101.937 50.9034C100.012 49.4499 98.0008 47.9661 95.8749 46.8154C92.8296 45.15 88.7214 43.9993 84.728 42.8486C80.1314 41.5465 76.1381 40.4261 74.5293 38.7001C73.4088 37.5191 72.5757 35.2177 71.5989 32.553C70.0188 28.2531 68.2663 23.3778 64.9338 22.8025C64.1294 22.651 63.3824 22.863 62.6929 23.4384C62.5493 23.5595 62.4056 23.7109 62.262 23.8623C65.7669 26.8298 66.9161 30.7058 68.5249 36.005C68.7547 36.7318 68.9558 37.4585 69.2144 38.2458C70.421 42.1824 74.242 44.2415 77.948 46.2401C80.4474 47.5724 82.7745 48.8443 84.3258 50.6611C85.8197 52.4174 86.3656 55.0822 85.8197 58.2314C85.1877 62.0166 83.033 65.8623 80.9646 67.013C78.4077 68.4059 70.852 69.92 66.715 68.0425C65.3073 67.4066 64.4167 66.4376 64.0432 65.1658C63.325 62.5616 61.946 60.2905 60.4521 58.7159C60.6532 61.6835 60.5382 63.9849 60.2222 65.9229C61.2852 66.9827 63.8708 69.1932 67.347 70.4045C71.9724 72.0094 79.7005 69.5566 79.7579 69.5263L80.3038 69.3446V69.9502C80.3038 70.0714 80.39 82.1536 79.1259 91.6013C78.4651 96.5674 75.7072 102.805 71.9149 107.832C67.5194 113.676 62.4056 117.189 57.493 117.704C48.7306 118.612 41.4909 115.857 36.6645 114.009C35.6015 113.616 34.6822 113.252 33.9352 113.01C31.7805 112.314 28.2756 112.132 25.2016 112.162C23.9088 113.252 22.3 113.646 20.2889 114.13L19.8006 114.252C17.9619 114.706 17.5884 113.919 17.5022 113.585C17.3299 112.828 18.0194 111.981 18.9674 111.738C19.8293 111.526 22.1851 111.314 24.8856 111.254C25.1729 110.981 25.4027 110.678 25.6613 110.345C27.5861 107.469 33.1883 104.774 35.0556 103.926C34.4523 103.502 32.8722 102.684 29.0226 101.503C26.2646 100.655 23.1906 101.17 20.6337 101.988C16.6978 109.679 11.5841 111.012 8.65371 111.042C7.1598 111.042 5.72335 110.769 4.54546 110.285C4.86148 110.86 5.23496 111.466 5.6659 112.071C7.38963 114.433 10.6935 118.552 13.6238 119.793C15.405 120.55 17.6459 120.035 18.5939 119.036C18.8238 118.824 19.0249 118.491 19.0249 118.128C15.5774 117.825 12.2448 117.037 11.7277 116.129C11.5553 115.826 11.5841 115.493 11.8139 115.221C12.4747 114.433 14.0548 114.13 15.7498 114.464C17.6171 114.827 19.0536 115.857 19.6569 117.249C21.8403 117.431 24.0524 117.401 25.5176 117.007C30.1717 115.735 35.659 116.25 40.9738 118.4C46.9782 120.853 55.683 121.216 60.7968 120.308C62.1471 120.066 63.8708 119.309 65.7382 118.128C67.4332 115.463 72.8055 108.922 74.3282 109.891C74.4431 109.982 74.7304 110.224 74.6442 110.739C74.3856 112.223 70.4497 116.19 66.3415 118.824C65.7095 119.884 65.5658 120.399 65.5946 120.55C67.4907 121.852 68.9846 122.185 70.852 122.579C71.168 122.639 71.5127 122.73 71.8287 122.791C72.7768 123.003 74.0696 122.397 75.4486 121.761C77.1723 120.944 78.9535 120.096 80.6485 120.58C83.5502 121.398 92.7147 128.181 99.2362 137.598C102.224 141.929 106.246 143.836 109.751 145.502C113.486 147.258 116.703 148.802 117.134 152.739C117.91 159.704 124.575 168.152 124.633 168.243L125.236 169H124.374V168.97ZM12.5609 115.675C13.078 116.159 15.721 116.765 18.6514 117.098C18.0481 116.22 16.9564 115.554 15.6349 115.281C14.342 115.039 13.078 115.221 12.5609 115.675ZM26.0922 111.193C29.0226 111.193 32.154 111.435 34.1938 112.071C34.9982 112.314 35.9175 112.677 36.9805 113.071C41.7208 114.888 48.8743 117.613 57.4355 116.704C67.7205 115.614 77.0287 100.837 78.2928 91.3893C79.3845 83.1831 79.4706 73.0086 79.4706 70.465C77.5745 71.0101 71.2829 72.615 67.0885 71.1615C63.8134 70.0411 61.3427 68.0728 60.0498 66.8918C59.9349 67.5277 59.7913 68.1031 59.6764 68.6784C59.3316 70.0714 57.6366 70.9798 56.6598 71.3735C54.3615 72.3122 51.1726 72.615 49.4776 71.434C47.9262 70.3439 46.9782 71.2826 46.892 71.4037L46.3174 72.0094L46.145 71.1918C46.145 71.1615 45.4268 67.3763 48.7306 65.4989C51.8908 63.682 59.1305 65.075 59.4465 65.1355H59.4753C59.7338 63.137 59.82 60.8053 59.5327 57.7469C58.441 56.8082 57.3206 56.2631 56.4013 56.1723C53.8444 55.9603 42.4677 61.1081 41.3186 64.6208C40.9164 65.8017 40.9163 66.7404 41.2611 67.4975C41.6633 68.3453 42.4677 68.6179 42.4677 68.6179L43.3296 68.8904L42.5539 69.4052C42.4103 69.496 29.0226 79.3374 22.3574 97.9603C21.984 98.9899 21.6105 99.9286 21.2083 100.807C23.7077 100.11 26.6093 99.7772 29.2811 100.595C33.6192 101.927 36.1186 103.108 36.2623 103.956L36.3197 104.319L35.975 104.471C35.8888 104.501 28.4767 107.65 26.322 110.83C26.2933 110.951 26.1784 111.072 26.0922 111.193ZM73.811 110.648C72.9779 110.951 70.421 113.283 67.9216 116.523C67.8929 116.553 67.8641 116.614 67.8354 116.644C68.3238 116.28 68.8122 115.887 69.2719 115.493C72.1735 113.101 73.5812 111.284 73.811 110.648ZM23.5066 112.162C21.4956 112.253 19.858 112.404 19.1685 112.586C18.5939 112.738 18.3066 113.192 18.3354 113.343C18.3354 113.373 18.6227 113.585 19.5994 113.343L20.0878 113.222C21.4668 112.889 22.5873 112.616 23.5066 112.162ZM3.97088 108.952C5.14877 109.619 6.81505 110.133 8.65371 110.103C11.268 110.073 15.7785 108.892 19.4271 102.351C16.8127 103.32 14.9454 104.501 14.9166 104.531L13.5951 105.379L14.3133 103.956C14.3995 103.774 16.5254 99.3835 13.5376 96.8096C12.7332 96.1132 11.6702 95.9921 10.4349 96.4765C9.42939 96.8702 8.45261 97.597 7.59074 98.4448C8.53879 98.5962 9.22829 99.2019 9.51558 100.201C10.3774 103.048 6.64267 107.741 6.4703 107.923L6.12556 108.347L5.80954 107.923C5.72335 107.802 3.6836 105.046 4.11453 102.351C4.22945 101.655 4.63165 100.807 5.23496 99.9286C4.66038 100.292 4.20072 100.746 3.97088 101.291C3.51122 102.2 2.50571 105.198 3.97088 108.952ZM38.7042 2.87743C38.4744 3.87671 38.2733 5.23937 38.2733 5.63302C38.2733 5.69358 38.2733 5.84499 38.2733 6.02668C38.0435 13.4153 39.3075 16.8976 40.428 18.5025C42.4103 21.4095 48.4721 30.2213 51.6897 31.9171L51.8908 32.0079L51.9196 32.2199C51.9483 32.4016 52.724 36.429 51.2013 39.0332C49.7074 41.5768 42.3241 50.9034 41.1749 52.1146C40.7153 52.5991 39.9108 52.9322 38.9915 53.3259C37.2678 54.0526 35.1131 54.9913 34.7396 56.9899C34.1938 59.9575 34.0789 63.5003 34.0789 63.5609V63.7426L33.9352 63.8637C33.849 63.9546 24.3972 72.9784 21.8403 77.7022C19.2834 82.3958 13.8537 89.845 10.32 90.9048C7.47582 91.7527 5.03386 94.1752 3.91343 97.2639C3.82724 97.5061 3.74105 97.7484 3.62614 98.0209C2.59189 100.837 1.18417 104.683 2.18969 107.287C2.27587 107.529 2.47698 107.802 2.76427 108.074C1.78748 104.562 2.73554 101.806 3.16647 100.837C3.68359 99.6864 4.9764 98.7476 6.32666 98.4751C7.41836 97.2639 8.79735 96.1435 10.1476 95.5984C11.6702 94.9928 13.0492 95.1442 14.1122 96.0526C16.5829 98.2026 16.0945 101.382 15.5487 103.108C16.5542 102.563 18.163 101.776 20.0591 101.14C20.5762 100.11 21.0646 98.9293 21.5243 97.6273C27.4999 80.9726 38.7904 71.2221 41.4622 69.1024C41.1175 68.8601 40.7152 68.4665 40.428 67.8911C39.9683 66.9221 39.9683 65.7109 40.428 64.3179C41.7495 60.3814 53.4422 55.0519 56.4013 55.2639C57.3206 55.3244 58.3548 55.7786 59.3604 56.5054C58.9007 50.9034 58.6421 42.3338 59.188 39.2451C59.3891 38.0642 59.2454 36.2776 58.7283 34.3093C58.6421 35.036 58.5847 35.5205 58.5847 35.5205L58.4985 36.3987L57.8664 35.8234C57.4068 35.3994 47.0931 25.8608 45.3406 15.6561C44.881 15.0202 44.3926 14.3843 43.9042 13.7484C41.3473 10.3569 38.9053 7.17736 38.6755 3.11968C38.733 3.05912 38.733 2.96828 38.7042 2.87743ZM6.75759 99.2927C5.78081 100.443 5.09131 101.655 4.94767 102.442C4.68911 104.168 5.63716 105.985 6.15429 106.833C7.27472 105.319 9.19956 102.2 8.68244 100.413C8.48134 99.7166 7.99294 99.323 7.24599 99.2624C7.10234 99.2927 6.92997 99.2927 6.75759 99.2927ZM48.0699 70.0411C48.6157 70.0411 49.2765 70.2228 49.966 70.7073C51.345 71.6763 54.3041 71.3735 56.3725 70.5559C57.7515 69.9805 58.6996 69.2235 58.872 68.4967C59.0443 67.77 59.2167 67.013 59.3316 66.1954C59.2742 66.1348 59.2167 66.0742 59.1593 66.0137C58.1537 65.832 51.8046 64.7722 49.1616 66.3165C47.2367 67.4369 46.9494 69.3143 46.9494 70.3136C47.2367 70.1319 47.6389 70.0411 48.0699 70.0411ZM60.3371 57.2927C62.2333 58.9885 63.9857 61.6532 64.8763 64.863C65.1636 65.8623 65.8818 66.6496 67.0597 67.1644C70.8232 68.8601 78.0916 67.5278 80.5623 66.1651C82.401 65.1658 84.3833 61.5018 84.9866 58.0497C85.475 55.2033 85.0153 52.7808 83.6938 51.2668C82.2574 49.6013 79.959 48.3598 77.5458 47.0577C73.6961 44.9683 69.7315 42.8183 68.3813 38.5487C68.1514 37.7613 67.9216 37.0043 67.6918 36.3079C66.0829 30.9784 64.9912 27.3749 61.6874 24.589C60.2797 26.6179 59.4753 29.9791 59.0443 32.4621C60.0211 35.248 60.3371 37.8825 60.0498 39.5177C59.504 42.5761 59.8488 51.9329 60.3371 57.2927ZM46.6621 17.4124C48.8456 25.2249 55.7405 32.4924 57.8664 34.5818C57.9239 34.0368 58.0388 33.2797 58.1825 32.4319C57.2344 29.8277 55.7118 27.0721 53.6146 24.9524L52.5229 23.8623C49.9372 21.3187 48.6444 20.0166 46.6621 17.4124ZM46.2025 15.323C48.8743 18.987 50.1096 20.2285 53.1262 23.2264L54.2179 24.3165C56.0565 26.1637 57.493 28.5256 58.4698 30.8572C58.9581 28.5256 59.7626 25.8306 61.0266 23.9834C60.8543 23.8623 60.6819 23.7109 60.5095 23.5595C56.2002 20.168 48.9605 14.5054 47.7826 7.44989C47.4953 5.75415 47.2655 5.05768 47.1218 4.75487C46.5185 6.02668 45.9152 12.1435 46.0301 13.7484C46.0588 14.2632 46.1163 14.8082 46.2025 15.323Z" fill="black" stroke="black" stroke-width="0.9"/>
</svg>
