<svg width="48" height="48" viewBox="0 0 48 48" fill="none" xmlns="http://www.w3.org/2000/svg">
<g clip-path="url(#clip0)">
<path d="M31.8218 33.9905L33.5122 33.4769C35.4324 32.8245 36.4601 30.739 35.8077 28.8188C35.4407 27.7386 34.5924 26.8903 33.5122 26.5233L31.8218 26.0097C30.3962 25.5775 28.8889 25.4868 27.4218 25.7449C26.1866 25.9803 25.1254 26.7645 24.5378 27.8761L11.6794 27.3009C10.9617 27.2239 10.2452 27.4567 9.70981 27.9409C8.57081 28.9822 8.4916 30.7498 9.53291 31.8888C9.5892 31.9504 9.64821 32.0094 9.70981 32.0657C10.23 32.5391 10.9255 32.7715 11.6258 32.7057L24.5394 32.1273C25.1273 33.2374 26.1878 34.0203 27.4218 34.2553C28.8889 34.5134 30.3962 34.4227 31.8218 33.9905ZM27.7002 32.6793C26.8128 32.5061 26.0847 31.8737 25.789 31.0193C25.6671 30.695 25.3503 30.4861 25.0042 30.5017L11.4994 31.1097C11.2345 31.1377 10.9704 31.0503 10.7746 30.8697C10.2977 30.388 10.2977 29.6122 10.7746 29.1305C10.9862 28.9409 11.271 28.8548 11.5522 28.8953L25.0042 29.4985C25.3503 29.5141 25.6671 29.3052 25.789 28.9809C26.0847 28.1265 26.8128 27.4941 27.7002 27.3209C28.9182 27.1069 30.1695 27.1823 31.353 27.5409L33.0442 28.0545C34.1187 28.4519 34.6676 29.6451 34.2702 30.7197C34.0601 31.2878 33.6122 31.7356 33.0442 31.9457L31.353 32.4593C30.1694 32.8175 28.9182 32.8929 27.7002 32.6793Z" fill="black"/>
<path d="M36 21.6C36 21.1582 35.6418 20.8 35.2 20.8L28.3312 20.8L26.1656 18.6344C26.006 18.4742 25.7859 18.389 25.56 18.4L11.56 19.1C11.2581 19.1167 10.9628 19.0071 10.7448 18.7976C10.303 18.3597 10.2998 17.6465 10.7378 17.2046C10.7401 17.2022 10.7425 17.1999 10.7448 17.1976C10.9628 16.988 11.2581 16.8785 11.56 16.8952L25.56 17.6C25.7858 17.6112 26.0058 17.5263 26.1656 17.3664L28.3312 15.2L35.2 15.2C35.6418 15.2 36 14.8418 36 14.4C36 13.9582 35.6418 13.6 35.2 13.6L28 13.6C27.7878 13.6 27.5844 13.6844 27.4344 13.8344L25.2848 15.9832L11.6376 15.3008C10.1469 15.2282 8.8795 16.3778 8.8069 17.8685C8.7343 19.3592 9.8839 20.6266 11.3746 20.6992C11.4622 20.7035 11.5499 20.7035 11.6375 20.6992L25.2847 20.0168L27.4343 22.1656C27.5843 22.3156 27.7877 22.4 27.9999 22.4L35.1999 22.4C35.6418 22.4 36 22.0418 36 21.6Z" fill="black"/>
<path d="M36 16.8C36 16.3582 35.6418 16 35.2 16L28.8 16C28.3582 16 28 16.3582 28 16.8C28 17.2418 28.3582 17.6 28.8 17.6L35.2 17.6C35.6418 17.6 36 17.2418 36 16.8Z" fill="black"/>
<path d="M36 19.2C36 18.7582 35.6418 18.4 35.2 18.4L28.8 18.4C28.3582 18.4 28 18.7582 28 19.2C28 19.6418 28.3582 20 28.8 20L35.2 20C35.6418 20 36 19.6418 36 19.2Z" fill="black"/>
<path d="M48 24C48 10.7452 37.2548 -4.69688e-07 24 -1.04907e-06C10.7452 -1.62846e-06 -4.69688e-07 10.7452 -1.04907e-06 24C-1.62846e-06 37.2548 10.7452 48 24 48C37.2486 47.985 47.985 37.2486 48 24ZM1.6 24C1.6 11.6288 11.6288 1.6 24 1.6C36.3712 1.6 46.4 11.6288 46.4 24C46.4 36.3712 36.3712 46.4 24 46.4C11.6347 46.3859 1.6141 36.3653 1.6 24Z" fill="black"/>
<path d="M8.98469 26.5964C9.42439 26.5535 9.74609 26.1622 9.70319 25.7224C9.70219 25.7121 9.70099 25.7018 9.69959 25.6915L9.70039 25.6947C9.56959 24.5684 9.56959 23.4306 9.70039 22.3043C9.75189 21.8653 9.43779 21.4678 8.99879 21.4163C8.55979 21.3648 8.16229 21.6789 8.11079 22.1179C7.96489 23.367 7.96489 24.6288 8.11079 25.8779C8.15359 26.3176 8.54489 26.6393 8.98469 26.5964Z" fill="black"/>
<path d="M34.3078 36.2414C34.6463 35.9575 34.6906 35.4529 34.4066 35.1144C34.4057 35.1133 34.4047 35.1122 34.4038 35.111C34.119 34.7733 33.6144 34.7303 33.2766 35.015C27.5506 39.8385 19.0837 39.4695 13.799 34.1662C13.4871 33.8532 12.9804 33.8523 12.6674 34.1642C12.3544 34.4761 12.3535 34.9828 12.6654 35.2958C18.5367 41.1895 27.9449 41.6005 34.3078 36.2414Z" fill="black"/>
<path d="M39.5516 27.7727C40.3009 24.6462 40.0995 21.3672 38.9732 18.3559C38.8177 17.9423 38.3563 17.7332 37.9428 17.8887C37.6311 18.0059 37.4248 18.3039 37.4245 18.6368C37.425 18.7325 37.4425 18.8273 37.4764 18.9167C38.4905 21.6285 38.6716 24.5813 37.9964 27.3967C37.8926 27.8262 38.1565 28.2585 38.586 28.3623C39.0155 28.4661 39.4478 28.2022 39.5516 27.7727Z" fill="black"/>
<path d="M13.8388 13.7996C16.5311 11.1027 20.188 9.5912 23.9988 9.6004C27.0434 9.5925 30.011 10.5569 32.4692 12.3532C32.8224 12.6187 33.3239 12.5476 33.5894 12.1944C33.8549 11.8412 33.7838 11.3397 33.4306 11.0742C33.4243 11.0695 33.418 11.0649 33.4116 11.0604C27.0528 6.43509 18.2757 7.11569 12.706 12.666C12.393 12.9788 12.3928 13.4862 12.7056 13.7992C13.0184 14.1122 13.5258 14.1124 13.8388 13.7996Z" fill="black"/>
</g>
<defs>
<clipPath id="clip0">
<rect width="48" height="48" fill="white" transform="translate(48) rotate(90)"/>
</clipPath>
</defs>
</svg>
