<svg width="46" height="46" viewBox="0 0 46 46" fill="none" xmlns="http://www.w3.org/2000/svg">
<g clip-path="url(#clip0)">
<path d="M44.1628 13.899C43.7587 13.7863 43.3498 13.7803 42.9656 13.8629L43.6011 11.5819C44.1 9.79074 42.452 8.04388 40.6284 8.45995C40.8182 6.92818 39.5271 5.55787 37.9896 5.64906C36.6035 5.73136 35.9146 6.77383 35.576 7.9889C34.227 6.72127 31.9352 7.36887 31.4398 9.14745L27.6086 22.9124C27.5839 23.0017 27.4562 23.0044 27.4281 22.9157L26.0635 18.6123C25.7479 17.6222 24.8717 16.9636 23.8966 16.8745L24.1094 16.4121C24.6836 15.1524 24.1258 13.6606 22.8661 13.0863C21.6174 12.5172 20.1076 13.0851 19.5399 14.3305L17.6746 18.4406C17.6361 18.5252 17.5098 18.5081 17.4957 18.416L15.3256 4.29338C15.0449 2.46917 12.8465 1.55329 11.3561 2.65218C11.1654 1.41286 10.6196 0.295365 9.2549 0.0415522C7.73561 -0.241101 6.27527 0.968665 6.28318 2.51822C4.52239 1.89021 2.67859 3.42988 2.96133 5.26695L3.32125 7.60553C1.56747 7.00491 -0.25252 8.53497 0.0289653 10.3643L2.14509 24.1147C2.45829 26.1501 3.11883 28.0949 4.10901 29.8981L3.7499 38.564C3.70974 39.534 4.59579 40.3319 5.56001 40.1831L20.7714 37.8422C21.754 37.691 22.3641 36.6267 21.9904 35.7002L18.8347 27.8744L21.7393 21.5622L25.1559 32.145L21.0934 39.5407C20.6129 40.4156 21.0915 41.5453 22.0496 41.8124L36.8755 45.9425C37.8133 46.2039 38.7896 45.5206 38.8651 44.5499L39.5373 35.9025C40.7345 34.2297 41.6213 32.3771 42.1739 30.3932L42.8565 27.943C43.0888 27.1095 41.7909 26.7467 41.5583 27.5813L40.8756 30.0316C40.3494 31.9208 39.4951 33.6808 38.3364 35.2631C38.2624 35.3643 38.218 35.484 38.2083 35.609L37.7937 40.9427L23.9755 37.0932L26.477 32.5392C26.5663 32.3766 26.5846 32.1843 26.5275 32.0077L22.5632 19.7283C22.1117 18.3124 24.3233 17.5916 24.7789 19.0208L26.1431 23.3232C26.5667 24.6589 28.5311 24.6236 28.9067 23.2741L32.7377 9.50917C33.1342 8.08665 35.3882 8.66184 34.9784 10.1333L31.6847 21.9564C31.4526 22.7899 32.7504 23.1527 32.983 22.318L36.2766 10.495V10.4949L37.016 7.84092C37.4123 6.41831 39.6666 6.99368 39.2565 8.46507L35.2235 22.9422C34.9822 23.8084 36.2929 24.1254 36.5217 23.3038L40.0618 10.5961C40.4643 9.15167 42.7049 9.77574 42.3025 11.2203L41.0704 15.6428C41.0703 15.6432 41.0701 15.6435 41.0701 15.6439L38.7623 23.9281C38.5302 24.7614 39.8272 25.127 40.0606 24.2897L42.3687 16.0043C42.7726 14.5612 45.0111 15.186 44.6089 16.6298L42.6842 23.5384C42.4521 24.3719 43.7499 24.7348 43.9825 23.9L45.9071 16.9914C46.2791 15.6576 45.4964 14.2704 44.1628 13.899ZM37.6874 42.3119L37.5215 44.4454C37.5107 44.5853 37.3726 44.6822 37.2374 44.6443L22.4114 40.5141C22.2728 40.4756 22.2056 40.3155 22.2748 40.1896L23.3092 38.3064L37.6874 42.3119ZM17.4762 28.1088L19.4193 32.9276L17.2371 33.2634C16.3837 33.3947 16.5855 34.7275 17.442 34.5954L19.937 34.2114L20.7406 36.204C20.7944 36.3374 20.7085 36.4882 20.5665 36.5101L5.35499 38.8512C5.21627 38.8726 5.09057 38.7601 5.09641 38.6199L5.185 36.4818L13.3092 35.2316C14.1643 35.1 13.9604 33.7673 13.1042 33.8996L5.24187 35.1096L5.46334 29.7644C5.46855 29.6392 5.43872 29.515 5.37718 29.4057C4.41467 27.6972 3.77533 25.8481 3.47704 23.9099L1.36092 10.1593C1.13271 8.6763 3.43095 8.32213 3.6597 9.80503L4.96784 18.305C5.09336 19.1216 6.44175 19.022 6.2998 18.1001L4.99174 9.60054C4.99165 9.60018 4.99165 9.59991 4.99156 9.59955L4.29329 5.06192C4.06526 3.57983 6.36413 3.22611 6.59215 4.70811L8.59867 17.7463C8.72418 18.563 10.0726 18.4629 9.93062 17.5413L7.64478 2.68776C7.41648 1.20451 9.71535 0.850788 9.94365 2.33395L12.2295 17.1875C12.3611 18.0429 13.6933 17.8389 13.5614 16.9826L11.6947 4.85213C11.4664 3.36897 13.7655 3.01507 13.9936 4.49823L16.1635 18.6207C16.3765 20.006 18.322 20.2752 18.9018 18.9976L20.7667 14.8886C21.3877 13.5257 23.5077 14.483 22.884 15.851C22.6796 16.2954 22.3142 16.8202 22.2434 17.3102C21.5133 17.816 21.0982 18.6823 21.1699 19.5762L17.4891 27.5752C17.4114 27.7437 17.4068 27.9368 17.4762 28.1088Z" fill="black" stroke="black" stroke-width="0.2"/>
</g>
<defs>
<clipPath id="clip0">
<rect width="46" height="46" fill="white"/>
</clipPath>
</defs>
</svg>
