<svg width="40" height="38" viewBox="0 0 40 38" fill="none" xmlns="http://www.w3.org/2000/svg">
<g clip-path="url(#clip0)">
<path d="M12.8641 7.42969C5.77087 7.42969 0 12.7672 0 19.3278C0 25.8885 5.77087 31.226 12.8641 31.226C19.9573 31.226 25.7281 25.8885 25.7281 19.3278C25.7281 12.7672 19.9573 7.42969 12.8641 7.42969Z" fill="#FFBC4F"/>
<path d="M27.1375 7.42969C20.0443 7.42969 14.2734 12.7672 14.2734 19.3278C14.2734 25.8885 20.0443 31.226 27.1375 31.226C34.2307 31.226 40.0016 25.8885 40.0016 19.3278C40.0016 12.7672 34.2307 7.42969 27.1375 7.42969Z" fill="#FF7D4F"/>
<path d="M19.2848 23.2324C19.2848 22.6337 18.7602 22.1484 18.1129 22.1484H14.6406C14.8393 22.9016 15.1155 23.6268 15.4612 24.3164H18.1129C18.7602 24.3164 19.2848 23.8312 19.2848 23.2324Z" fill="#FFBC4F"/>
<path d="M19.2847 16.1775C19.2847 15.579 18.7601 15.0935 18.1129 15.0935H15.1169C14.8301 15.7877 14.6113 16.5126 14.4688 17.2615H18.1129C18.7601 17.2615 19.2847 16.7762 19.2847 16.1775Z" fill="#FFBC4F"/>
<path d="M22.5077 19.7048C22.5077 19.1061 21.9828 18.6208 21.3358 18.6208H14.2966C14.2817 18.8549 14.2734 19.0903 14.2734 19.3277C14.2734 19.8223 14.3067 20.3098 14.3705 20.7888H21.3358C21.9828 20.7888 22.5077 20.3036 22.5077 19.7048Z" fill="#FFBC4F"/>
</g>
<defs>
<clipPath id="clip0">
<rect width="40" height="37" fill="white" transform="translate(0 0.853516)"/>
</clipPath>
</defs>
</svg>
