<svg id="Оплата" xmlns="http://www.w3.org/2000/svg" width="45.75" height="41.91" viewBox="0 0 45.75 41.91">
  <path id="Path_1" data-name="Path 1" d="M25.33,12.48H13.36a.82.82,0,1,0,0,1.64H25.34a.82.82,0,1,0-.01-1.64Z" fill="#070809"/>
  <circle id="Ellipse_1" data-name="Ellipse 1" cx="1.63" cy="1.63" r="1.63" transform="translate(30.73 28.02)" fill="#070809"/>
  <path id="Path_2" data-name="Path 2" d="M42.14,7.26H31.63a5.49,5.49,0,1,0-10.4,0H12.11A3.615,3.615,0,0,0,8.5,10.87v1.61H3.61A3.632,3.632,0,0,0,0,16.11V38.3a3.615,3.615,0,0,0,3.61,3.61H33.64a3.615,3.615,0,0,0,3.61-3.61V35.54h1.9a2.68,2.68,0,0,0,2.68-2.68V30.8h.31a3.615,3.615,0,0,0,3.61-3.61V10.89A3.606,3.606,0,0,0,42.14,7.26ZM22.77,5.49a3.669,3.669,0,1,1,.46,1.77A3.662,3.662,0,0,1,22.77,5.49ZM1.96,16.11a1.658,1.658,0,0,1,1.65-1.65H8.5v3.92H1.96ZM35.3,38.29a1.645,1.645,0,0,1-1.65,1.65H3.61a1.652,1.652,0,0,1-1.65-1.65V20.34H13.3a5.33,5.33,0,0,0-.21,1.5,5.49,5.49,0,1,0,10.98,0,5.33,5.33,0,0,0-.21-1.5h9.78a1.652,1.652,0,0,1,1.65,1.65v1.78H32.68a5.923,5.923,0,0,0-5.77,4.71,5.866,5.866,0,0,0,1.61,5.34,5.387,5.387,0,0,0,1.23.93,5.747,5.747,0,0,0,2.93.79h2.61v2.75ZM17.39,18.38a3.64,3.64,0,0,1,2.38,0,3.68,3.68,0,0,1,2.15,1.96,3.769,3.769,0,0,1,.32,1.5,3.66,3.66,0,0,1-7.32,0,3.7,3.7,0,0,1,2.47-3.46Zm14.15,0V13.27a.132.132,0,0,1,.13-.13h7.26a.132.132,0,0,1,.13.13V20.7a.132.132,0,0,1-.13.13H37.07a3.609,3.609,0,0,0-3.42-2.46H31.54Zm8.34,14.47a.721.721,0,0,1-.67.72H32.69a3.926,3.926,0,0,1-1.95-.52,3.621,3.621,0,0,1-.81-.63,3.891,3.891,0,0,1-1.16-2.77,3.814,3.814,0,0,1,.08-.78,3.936,3.936,0,0,1,3.84-3.14c1.75,0,6.3.01,6.52.01a.719.719,0,0,1,.67.71Zm3.92-5.67a1.645,1.645,0,0,1-1.65,1.65h-.31V26.44a2.68,2.68,0,0,0-2.68-2.68h-1.9v-1.3h1.67a1.763,1.763,0,0,0,1.76-1.76V13.27a1.763,1.763,0,0,0-1.76-1.76H31.67a1.763,1.763,0,0,0-1.76,1.76v5.11H22.85a5.485,5.485,0,0,0-8.52,0H10.47v-7.5a1.658,1.658,0,0,1,1.65-1.65H22.4a5.494,5.494,0,0,0,8.06,0H42.15a1.652,1.652,0,0,1,1.65,1.65v16.3Z" fill="#070809"/>
</svg>
