<svg width="48" height="48" viewBox="0 0 48 48" fill="none" xmlns="http://www.w3.org/2000/svg">
<rect opacity="0.08" width="48" height="48" rx="24" fill="#FC5239"/>
<g clip-path="url(#clip0)">
<path d="M26.936 30.5011C26.421 31.0161 25.5912 31.0116 25.0812 30.5016L17.499 22.9196C16.988 22.4106 16.9846 21.5803 17.499 21.0659C17.6241 20.9408 18.0151 20.5497 18.2536 20.3124L13.8217 15.8812C9.71584 20.5367 13.2362 26.0185 17.6095 30.3912C22.0044 34.7863 27.4776 38.2737 32.1215 34.1784L27.6896 29.7472C27.5778 29.859 27.3654 30.0713 26.936 30.5011Z" fill="#FC5239"/>
<path d="M19.258 19.3061C19.2612 19.3033 19.9686 18.5956 20.5953 17.9691C20.7791 17.7853 20.779 17.4875 20.5952 17.3037L16.8136 13.5221C16.63 13.3384 16.3323 13.3382 16.1485 13.5218C15.5402 14.1294 14.8486 14.8212 14.8008 14.8691L19.2481 19.3155C19.2514 19.3122 19.2547 19.3089 19.258 19.3061Z" fill="#FC5239"/>
<path d="M30.6997 27.4046C30.5159 27.2208 30.218 27.2208 30.0342 27.4046L28.6875 28.7514L33.1344 33.1978C33.3943 32.9391 34.0058 32.3269 34.4814 31.8493C34.6645 31.6654 34.664 31.3681 34.4805 31.1846L30.6997 27.4046Z" fill="#FC5239"/>
<path d="M34.2424 22.2424C36.5859 19.899 36.5859 16.101 34.2424 13.7576C31.899 11.4141 28.101 11.4141 25.7576 13.7576C23.4141 16.101 23.4141 19.899 25.7576 22.2424C28.101 24.5859 31.9014 24.5859 34.2424 22.2424ZM27.8488 17.083L29.198 18.4322L32.1537 15.479L33.1993 16.5246L30.2461 19.4778L29.198 20.5234L28.1524 19.4778L26.8032 18.1286L27.8488 17.083Z" fill="#FC5239"/>
</g>
<defs>
<clipPath id="clip0">
<rect width="24" height="24" fill="white" transform="translate(12 12)"/>
</clipPath>
</defs>
</svg>
