<svg xmlns="http://www.w3.org/2000/svg" width="125.141" height="141.314" viewBox="0 0 125.141 141.314">
  <g id="icon_Bonus-02" data-name="icon Bonus-02" transform="translate(-41.549 0)">
    <g id="Group_5_2_" transform="translate(53.828 0.85)">
      <path id="Path_10_2_" d="M95.506,47.31c9.863-8.78,13.289-20.22,15.52-26.386C117.957,1.723,129.27.194,134.99.13c10.357-.064,16.029,14.564,3.49,24.411-11.568,9.1-19.328-.829-36.122,14.627,0,0,3.251-9.8-.51-18.117-5.9-13.1-18.675-23.662-32.027-19.965-8.588,2.358-12.715,12.46-5.4,21.176C74.776,34.6,96.526,24.557,104.031,36.443c4.7,7.441,9.991.287,14.755,7.569,3.187,1.466,8.811,18.1,2.932,16.444-7.027-1.992,5.418-20.14,8.891-20.379,4.7-.319,17.145-.972,20.539-.892,3.681.08,5.848,1.928,6.15,5.019a7.265,7.265,0,0,1,.016,1.02c-.637,7.5-1.657,18.818-2.1,20.985a131.9,131.9,0,0,0-1.976,42.671c.574,4.573,2.422,15.711-.892,19.2-3.744,4-13.8.255-21.941-.191-12.4-.7-17.1.7-24.921.446-2.549-.064-14.627,1.53-16.4-.255-12.524-12.4.366-28.235-.143-10.994-.191,6.1.143,10.994-8.174,10.437-13.48-1.02-20.22,1.657-27.661.637-9.226-1.275-.637-26.833-.319-37.253.255-10.038.574-20.156.829-30.195a118.306,118.306,0,0,0-1.084-15.2,6.618,6.618,0,0,1,5.736-7.393,5.924,5.924,0,0,1,1.068-.048s14.548,2.486,19.455,2.677c5.832.239,23.311-1.323,23.311-1.323" transform="translate(-48.847 -0.13)" fill="none" stroke="#d9d9d9" stroke-linecap="round" stroke-linejoin="round" stroke-miterlimit="10" stroke-width="1.7"/>
    </g>
    <path id="Path_22" data-name="Path 22" d="M54.144,59.094A11.744,11.744,0,0,1,42.4,47.351c-.1-6.389,5.688-11.823,11.95-11.791a12.318,12.318,0,0,1,11.839,12C66.126,53.215,60.868,59.461,54.144,59.094Z" transform="translate(0 20.596)" fill="none" stroke="#d9d9d9" stroke-linecap="round" stroke-linejoin="round" stroke-miterlimit="10" stroke-width="1.7"/>
    <path id="Path_23" data-name="Path 23" d="M98.924,97.224A11.744,11.744,0,0,1,87.18,85.481c-.1-6.389,5.688-11.823,11.95-11.791a12.318,12.318,0,0,1,11.839,12C110.922,91.345,105.648,97.591,98.924,97.224Z" transform="translate(26.572 43.222)" fill="none" stroke="#d9d9d9" stroke-linecap="round" stroke-linejoin="round" stroke-miterlimit="10" stroke-width="1.7"/>
    <path id="Path_24" data-name="Path 24" d="M124.861,70.78c0,3.729-3.155,7.011-6.74,6.82a6.678,6.678,0,0,1-6.66-6.756,6.7,6.7,0,0,1,13.4-.064Z" transform="translate(40.979 37.56)" fill="none" stroke="#d9d9d9" stroke-linecap="round" stroke-linejoin="round" stroke-miterlimit="10" stroke-width="1.7"/>
    <g id="Group_8" data-name="Group 8" transform="translate(85.852 60.793)">
      <path id="Path_25" data-name="Path 25" d="M80.8,73.982c.876-2.533.653-5.641,1.354-8.6a2.3,2.3,0,0,0-.621-2.518c-1.928-1.944-3.808-3.936-5.7-5.911-.462-.494-1.259-.908-1.036-1.7.239-.876,1.163-.542,1.785-.733a43.818,43.818,0,0,1,7.314-1.227,4.07,4.07,0,0,0,3.251-2.613c1.179-2.326,2.454-4.6,3.617-6.931.669-1.338,1.275-1.291,1.928-.048,1.227,2.294,2.5,4.573,3.649,6.915a4.458,4.458,0,0,0,4.175,2.788c2.486.064,4.876.813,7.314,1.2,1.514.239,1.179,1.052.43,1.832-1.816,1.88-3.617,3.776-5.513,5.577a3.791,3.791,0,0,0-1.243,4.366c.749,2.6.574,5.418,1.227,8.094.351,1.418-.621,1.227-1.482.8-2.741-1.338-5.5-2.645-8.222-4.047a2.4,2.4,0,0,0-2.486,0c-2.709,1.386-5.481,2.693-8.222,4.015C81.455,75.671,80.658,75.8,80.8,73.982Z" transform="translate(-66.652 -35.932)" fill="none" stroke="#d9d9d9" stroke-linecap="round" stroke-linejoin="round" stroke-miterlimit="10" stroke-width="1.7"/>
      <path id="Path_26" data-name="Path 26" d="M69.718,63.948a4.027,4.027,0,0,1-.048-.765c.669-10.277,5.322-17.957,14.723-22.546A24.645,24.645,0,0,1,94.559,38.47" transform="translate(-69.67 -38.47)" fill="none" stroke="#d9d9d9" stroke-linecap="round" stroke-linejoin="round" stroke-miterlimit="10" stroke-width="1.7"/>
      <path id="Path_27" data-name="Path 27" d="M109.706,54.28v1.53c-1,8.27-4.7,14.914-11.855,19.423A20.628,20.628,0,0,1,86.57,78.818" transform="translate(-59.642 -29.089)" fill="none" stroke="#d9d9d9" stroke-linecap="round" stroke-linejoin="round" stroke-miterlimit="10" stroke-width="1.7"/>
    </g>
  </g>
</svg>
