<svg width="27" height="17" viewBox="0 0 27 17" fill="none" xmlns="http://www.w3.org/2000/svg">
<path d="M0.359375 0.687103H26.6407V12.4059H0.359375V0.687103Z" fill="#CC2F24"/>
<path d="M21.0371 2.2496H2.17188V7.57524C3.05823 7.82325 3.86385 8.2487 4.52279 8.81675C5.18173 9.3848 5.67525 10.0793 5.96295 10.8434H24.8281V5.51777C23.9418 5.26975 23.1362 4.8443 22.4772 4.27625C21.8183 3.7082 21.3248 3.0137 21.0371 2.2496Z" fill="#E1D5D1"/>
<path d="M21.6562 16.7028C24.409 16.7028 26.6406 14.779 26.6406 12.4059C26.6406 10.0328 24.409 8.10901 21.6562 8.10901C18.9035 8.10901 16.6719 10.0328 16.6719 12.4059C16.6719 14.779 18.9035 16.7028 21.6562 16.7028Z" fill="#FDB62F"/>
<path d="M23.5568 15.0687L23.1055 14.3913C23.5591 14.1656 23.9195 13.8232 24.1361 13.4121L24.9618 13.7337C24.6669 14.2944 24.1755 14.7613 23.5568 15.0687Z" fill="#EC9E15"/>
<path d="M19.1734 11.273L18.3477 10.9512C18.6426 10.3905 19.134 9.92356 19.7527 9.61606L20.2041 10.2935C19.7504 10.5193 19.3901 10.8618 19.1735 11.273H19.1734Z" fill="#EC9E15"/>
<path d="M14.8594 6.54651C15.3401 6.54651 15.8011 6.38189 16.141 6.08886C16.4809 5.79584 16.6719 5.39841 16.6719 4.98401C16.6719 4.56961 16.4809 4.17218 16.141 3.87915C15.8011 3.58613 15.3401 3.42151 14.8594 3.42151H12.1406C12.0204 3.42151 11.9052 3.46266 11.8202 3.53592C11.7352 3.60918 11.6875 3.70853 11.6875 3.81213V7.32776H10.7812V8.10901H11.6875V9.67151H12.5938V8.10901H15.7656V7.32776H12.5938V6.54651H14.8594ZM12.5938 4.20276H14.8594C15.0997 4.20276 15.3302 4.28507 15.5002 4.43158C15.6701 4.57809 15.7656 4.77681 15.7656 4.98401C15.7656 5.19121 15.6701 5.38992 15.5002 5.53644C15.3302 5.68295 15.0997 5.76526 14.8594 5.76526H12.5938V4.20276Z" fill="#CC2F24"/>
<path d="M23.0178 12.7965C23.3784 12.7965 23.7241 12.673 23.979 12.4533C24.234 12.2335 24.3772 11.9354 24.3772 11.6246C24.3772 11.3138 24.234 11.0158 23.979 10.796C23.7241 10.5762 23.3784 10.4528 23.0178 10.4528H20.7734C20.6533 10.4528 20.538 10.4939 20.453 10.5672C20.3681 10.6404 20.3203 10.7398 20.3203 10.8434V13.1871H19.4141V13.9684H20.3203V14.7496H21.2266V13.9684H23.0391V13.1871H21.2266V12.7965H23.0178ZM23.4709 11.6246C23.4708 11.7282 23.423 11.8275 23.3381 11.9007C23.2531 11.974 23.138 12.0152 23.0178 12.0153H21.2266V11.234H23.0178C23.138 11.2341 23.2531 11.2753 23.3381 11.3485C23.423 11.4218 23.4708 11.5211 23.4709 11.6246Z" fill="#EC9E15"/>
</svg>
