<svg width="48" height="48" viewBox="0 0 48 48" fill="none" xmlns="http://www.w3.org/2000/svg">
<path d="M24 0C10.745 0 0 10.745 0 24C0 37.255 10.745 48 24 48C37.255 48 48 37.255 48 24C47.985 10.7512 37.2488 0.0150146 24 0ZM24 46.4C11.6287 46.4 1.59998 36.3713 1.59998 24C1.59998 11.6287 11.6287 1.59998 24 1.59998C36.3713 1.59998 46.4 11.6287 46.4 24C46.3857 36.3655 36.3655 46.3857 24 46.4Z" fill="black"/>
<path d="M24 3.19995C19.0833 3.20398 14.3273 4.95227 10.5784 8.13354C10.5688 8.1416 10.5648 8.15295 10.556 8.16174C10.5472 8.17053 10.5366 8.172 10.5278 8.18005C10.5029 8.21228 10.4806 8.2467 10.4608 8.28223C10.3726 8.41077 10.3176 8.55872 10.3008 8.71362C10.3074 8.8147 10.3231 8.91504 10.3473 9.01355C10.3678 9.06042 10.3927 9.10547 10.4216 9.14795C10.4392 9.1875 10.4601 9.22559 10.4839 9.26147C10.4927 9.27136 10.504 9.27429 10.5128 9.28418C10.5216 9.2937 10.5231 9.30322 10.5311 9.31128L17.035 15.7679C17.2346 15.9858 17.5375 16.0763 17.8235 16.0031C18.1095 15.9302 18.3318 15.7053 18.4025 15.4189C18.4728 15.1322 18.3798 14.8301 18.16 14.6327L12.3025 8.81689C19.9325 2.9165 30.7588 3.60681 37.578 10.4279C44.3976 17.2489 45.0846 28.0756 39.1824 35.7041L34.1602 30.6815C33.8459 30.3783 33.3472 30.3827 33.0385 30.6914C32.7301 30.9998 32.7257 31.4989 33.0289 31.8127L38.6927 37.4769C38.7008 37.4846 38.7122 37.4872 38.7209 37.4952C38.7272 37.504 38.7341 37.5125 38.7415 37.5209C38.8187 37.5656 38.8956 37.6106 38.9729 37.6553C39.0634 37.6912 39.16 37.7102 39.2574 37.7113C39.3662 37.7102 39.4735 37.6871 39.5728 37.6432C39.6046 37.6249 39.635 37.6047 39.6639 37.5824C39.7214 37.5542 39.7753 37.5187 39.824 37.4769C39.8328 37.4681 39.8353 37.4568 39.843 37.448C39.8511 37.4392 39.8617 37.4366 39.8687 37.429C45.1018 31.2491 46.2711 22.5934 42.8654 15.2468C39.4592 7.90027 32.0977 3.19922 24 3.19995Z" fill="black"/>
<path d="M37.7773 39.0465C37.7722 38.9963 37.762 38.9473 37.7469 38.8993C37.7253 38.8495 37.6986 38.8026 37.6671 38.7583C37.6503 38.7213 37.6305 38.6858 37.6078 38.6521C37.6001 38.6433 37.588 38.6393 37.5799 38.6305C37.5719 38.6217 37.5686 38.6096 37.5591 38.6008L30.1623 31.4257C29.9573 31.2257 29.6606 31.1503 29.3849 31.2279C29.1091 31.3055 28.8956 31.5245 28.8249 31.8021C28.7543 32.0801 28.837 32.3745 29.0425 32.5745L35.7855 39.1128C28.157 45.0941 17.2629 44.4346 10.4115 37.5769C3.56005 30.7196 2.91039 19.8248 8.8983 12.2018L13.9729 17.28C14.1736 17.488 14.4709 17.5715 14.7507 17.4983C15.0305 17.425 15.2488 17.2064 15.322 16.9266C15.3953 16.6472 15.3118 16.3495 15.1037 16.1488L9.39196 10.4366C9.38463 10.4297 9.37438 10.4271 9.36705 10.4202C9.35973 10.4128 9.3568 10.4033 9.34874 10.396C9.31249 10.3715 9.27477 10.3502 9.23522 10.3319C9.19201 10.3008 9.14586 10.274 9.09752 10.2521C9.04772 10.2367 8.99645 10.2264 8.94481 10.2224C8.89794 10.2122 8.85033 10.2063 8.80236 10.2048C8.74962 10.2092 8.69762 10.2195 8.64708 10.2352C8.59911 10.2433 8.55187 10.2561 8.50646 10.2737C8.45775 10.2986 8.41234 10.329 8.37023 10.3641C8.33324 10.3843 8.29772 10.4073 8.26476 10.4337C8.25743 10.4407 8.25524 10.4513 8.24791 10.4583C8.24059 10.4656 8.23107 10.4696 8.22374 10.4777C1.1632 18.7222 1.63707 31.0118 9.31212 38.688C16.9868 46.3641 29.2768 46.8402 37.5224 39.7808C37.532 39.7727 37.536 39.7606 37.5455 39.7518C37.555 39.743 37.5657 39.7408 37.5745 39.7321C37.599 39.6995 37.621 39.665 37.64 39.6288C37.6737 39.587 37.703 39.542 37.7272 39.4944C37.7579 39.3981 37.7803 39.2988 37.7934 39.1985C37.7934 39.1472 37.788 39.0963 37.7773 39.0465Z" fill="black"/>
<path d="M36.7443 15.7793C36.734 15.7537 36.7227 15.7291 36.7098 15.705C36.6787 15.6431 36.6403 15.5856 36.5945 15.5336C36.5776 15.5145 36.5634 15.4944 36.5458 15.4775C36.4813 15.4149 36.4066 15.3636 36.325 15.3263L36.3129 15.3208L29.1274 12.1271C29.1216 12.1271 29.1154 12.1271 29.1088 12.1271C29.0513 12.1069 28.9912 12.093 28.9304 12.0864C28.8879 12.074 28.8444 12.0652 28.8 12.0593C28.7561 12.0634 28.7125 12.071 28.6697 12.0824C28.6104 12.089 28.5518 12.1022 28.4954 12.1216C28.4884 12.1227 28.4814 12.1245 28.4745 12.1263L21.2898 15.3201L21.2777 15.3256C21.196 15.3629 21.1217 15.4138 21.0576 15.4768C21.04 15.4944 21.0236 15.5131 21.0082 15.5328C20.9624 15.5845 20.924 15.6423 20.8928 15.7039C20.8811 15.7288 20.8683 15.7518 20.8584 15.7775C20.8232 15.8665 20.8046 15.9606 20.8024 16.0562V18.6478L18.7274 17.7264C18.7208 17.7264 18.7146 17.7264 18.708 17.7217C18.6062 17.6968 18.5037 17.6759 18.4 17.6591C18.3561 17.6635 18.3125 17.6711 18.2697 17.6825C18.2103 17.6891 18.1517 17.7023 18.0953 17.7217C18.0887 17.7228 18.0818 17.7242 18.0752 17.7264L10.8898 20.9202L10.8777 20.9257C10.796 20.9626 10.7217 21.0139 10.6576 21.0769C10.64 21.0945 10.6235 21.1132 10.6082 21.1329C10.5624 21.1846 10.5239 21.2421 10.4928 21.304C10.4811 21.3289 10.4683 21.3519 10.4584 21.3776C10.4236 21.4662 10.4045 21.5607 10.4023 21.6559V31.2561C10.4067 31.2905 10.4137 31.325 10.4232 31.3583C10.4225 31.4788 10.4657 31.5952 10.5448 31.6857C10.569 31.73 10.5975 31.7721 10.6298 31.8113C10.6803 31.8582 10.7367 31.8981 10.7979 31.9303C10.8231 31.9508 10.8499 31.9698 10.8777 31.9871L10.8898 31.9929L18.0752 35.1863H18.0811C18.0946 35.1921 18.1089 35.1929 18.1224 35.1976C18.2096 35.2321 18.3022 35.2511 18.396 35.2537H18.4041C18.4978 35.2511 18.5905 35.2321 18.6776 35.1976C18.6912 35.1929 18.7058 35.1921 18.7194 35.1863H18.7249L25.9106 31.9929L25.9224 31.9871C25.9506 31.9706 25.9773 31.9515 26.0026 31.931C26.0637 31.8984 26.1208 31.8582 26.1721 31.8113C26.204 31.7721 26.2318 31.73 26.256 31.6857C26.2871 31.6447 26.3138 31.6007 26.3362 31.5546C26.3574 31.4912 26.3706 31.4257 26.3754 31.3594C26.386 31.3257 26.3944 31.2916 26.4003 31.2568V28.6641L28.4752 29.588H28.4811C28.4946 29.5935 28.5089 29.5942 28.5225 29.5994C28.6096 29.6338 28.7023 29.6528 28.796 29.655H28.8041C28.8978 29.6528 28.9905 29.6338 29.0776 29.5994C29.0912 29.5942 29.1058 29.5935 29.1194 29.588H29.1249L36.3107 26.3943L36.3224 26.3888C36.3506 26.3719 36.3773 26.3533 36.4026 26.3328C36.4637 26.3002 36.5209 26.2599 36.5721 26.2126C36.604 26.1735 36.6318 26.1313 36.656 26.087C36.6871 26.0464 36.7139 26.0024 36.7362 25.9559C36.7574 25.8929 36.7703 25.8274 36.7754 25.7607C36.786 25.7267 36.7944 25.6919 36.8003 25.6567V16.0569C36.7985 15.9617 36.7794 15.8676 36.7443 15.7793ZM29.6002 19.7791L35.2 17.2903V25.14L29.6002 27.6288V19.7791ZM28.8 13.7344L34.0306 16.0591L28.8 18.3816L23.5698 16.0569L28.8 13.7344ZM18.4 19.3345L21.2803 20.6144L21.2953 20.621L23.6299 21.6606L18.4 23.9817L13.1698 21.657L18.4 19.3345ZM24.8003 27.42V30.7401L19.2002 33.2289V25.377L24.8003 22.8878V27.42ZM12.0001 22.8878L17.6002 25.377V33.2263L12.0001 30.7375V22.8878ZM26.4003 21.657C26.3981 21.5339 26.3669 21.4135 26.3098 21.3047C26.2791 21.2432 26.2402 21.1853 26.1945 21.1337C26.1776 21.1143 26.1633 21.0945 26.1458 21.0776C26.0813 21.015 26.0066 20.9637 25.9249 20.9264L25.9128 20.9209L22.4001 19.3601V17.2881L28.0002 19.7769V27.6255L26.4003 26.9136V21.657Z" fill="black"/>
</svg>
