<svg width="49" height="17" viewBox="0 0 49 17" fill="none" xmlns="http://www.w3.org/2000/svg">
<path d="M20.0285 0.686768L17.5693 15.9902H21.5L23.9577 0.686768H20.0285ZM31.885 6.92051C30.5114 6.24219 29.6693 5.78437 29.6693 5.0906C29.6861 4.4598 30.3814 3.81355 31.934 3.81355C33.2111 3.78147 34.1497 4.08159 34.8618 4.38019L35.2185 4.5394L35.7529 1.33755C34.9765 1.03743 33.7455 0.706752 32.2249 0.706752C28.3432 0.706752 25.6099 2.72493 25.593 5.61139C25.5609 7.74142 27.5498 8.92341 29.0383 9.63247C30.5589 10.3598 31.0765 10.8314 31.0765 11.4777C31.0597 12.4699 29.847 12.9277 28.7154 12.9277C27.1474 12.9277 26.3052 12.6919 25.0267 12.139L24.509 11.9032L23.9594 15.2307C24.8827 15.6412 26.5808 16.0024 28.3434 16.0209C32.4686 16.0209 35.1528 14.0333 35.1866 10.957C35.2 9.26954 34.1512 7.97705 31.885 6.92051ZM45.83 0.734127H42.7889C41.8518 0.734127 41.1397 1.00368 40.7339 1.96533L34.8952 15.9902H39.0204L40.1566 12.9537H44.7718L45.3613 16.0024H48.9997L45.83 0.734127ZM41.3006 9.88943C41.3802 9.89715 42.884 4.93273 42.884 4.93273L44.0814 9.88943C44.0814 9.88943 42.077 9.88943 41.3006 9.88943ZM14.2848 0.686768L10.4337 11.084L10.0141 9.03358C9.30205 6.66776 7.06957 4.09687 4.57812 2.81982L8.10461 15.9749H12.2636L18.4437 0.688446H14.2848V0.686768Z" fill="#2394BC"/>
<path d="M8.71898 2.65986C8.41886 1.49299 7.46175 0.706003 6.16186 0.689209H0.062811L0 0.972362C4.75768 2.14528 8.75106 5.7544 10.0466 9.14921L8.71898 2.65986Z" fill="#EFC75E"/>
</svg>
